<svg xmlns="http://www.w3.org/2000/svg" viewBox="0 0 256 256" width="256" height="256"><rect width="256" height="256" fill="#000000"/><circle cx="20" cy="20" r="3" fill="#00ff87" opacity="0.21"/><circle cx="44" cy="20" r="3" fill="#00ff87" opacity="0.65"/><circle cx="68" cy="20" r="3" fill="#00ff87" opacity="0.98"/><circle cx="92" cy="20" r="3" fill="#00ff87" opacity="0.51"/><circle cx="116" cy="20" r="3" fill="#00ff87" opacity="0.25"/><circle cx="140" cy="20" r="3" fill="#00ff87" opacity="0.86"/><circle cx="164" cy="20" r="3" fill="#00ff87" opacity="0.90"/><circle cx="188" cy="20" r="3" fill="#00ff87" opacity="0.60"/><circle cx="212" cy="20" r="3" fill="#00ff87" opacity="0.60"/><circle cx="236" cy="20" r="3" fill="#00ff87" opacity="0.58"/><circle cx="20" cy="44" r="3" fill="#00ff87" opacity="0.46"/><circle cx="44" cy="44" r="3" fill="#00ff87" opacity="0.73"/><circle cx="68" cy="44" r="3" fill="#00ff87" opacity="0.94"/><circle cx="92" cy="44" r="3" fill="#00ff87" opacity="0.29"/><circle cx="116" cy="44" r="3" fill="#00ff87" opacity="0.77"/><circle cx="140" cy="44" r="3" fill="#00ff87" opacity="0.81"/><circle cx="164" cy="44" r="3" fill="#00ff87" opacity="0.25"/><circle cx="188" cy="44" r="3" fill="#00ff87" opacity="0.75"/><circle cx="212" cy="44" r="3" fill="#00ff87" opacity="0.33"/><circle cx="236" cy="44" r="3" fill="#00ff87" opacity="0.50"/><circle cx="20" cy="68" r="3" fill="#00ff87" opacity="0.74"/><circle cx="44" cy="68" r="3" fill="#00ff87" opacity="0.51"/><circle cx="68" cy="68" r="3" fill="#00ff87" opacity="0.85"/><circle cx="92" cy="68" r="3" fill="#00ff87" opacity="0.67"/><circle cx="116" cy="68" r="3" fill="#00ff87" opacity="0.87"/><circle cx="140" cy="68" r="3" fill="#00ff87" opacity="0.25"/><circle cx="164" cy="68" r="3" fill="#00ff87" opacity="0.34"/><circle cx="188" cy="68" r="3" fill="#00ff87" opacity="0.66"/><circle cx="212" cy="68" r="3" fill="#00ff87" opacity="0.34"/><circle cx="236" cy="68" r="3" fill="#00ff87" opacity="0.31"/><circle cx="20" cy="92" r="3" fill="#00ff87" opacity="0.23"/><circle cx="44" cy="92" r="3" fill="#00ff87" opacity="0.62"/><circle cx="68" cy="92" r="3" fill="#00ff87" opacity="0.41"/><circle cx="92" cy="92" r="3" fill="#00ff87" opacity="0.40"/><circle cx="116" cy="92" r="3" fill="#00ff87" opacity="0.50"/><circle cx="140" cy="92" r="3" fill="#00ff87" opacity="0.40"/><circle cx="164" cy="92" r="3" fill="#00ff87" opacity="0.51"/><circle cx="188" cy="92" r="3" fill="#00ff87" opacity="0.29"/><circle cx="212" cy="92" r="3" fill="#00ff87" opacity="0.93"/><circle cx="236" cy="92" r="3" fill="#00ff87" opacity="0.67"/><circle cx="20" cy="116" r="3" fill="#00ff87" opacity="0.73"/><circle cx="44" cy="116" r="3" fill="#00ff87" opacity="0.53"/><circle cx="68" cy="116" r="3" fill="#00ff87" opacity="0.30"/><circle cx="92" cy="116" r="3" fill="#00ff87" opacity="0.46"/><circle cx="116" cy="116" r="3" fill="#00ff87" opacity="0.75"/><circle cx="140" cy="116" r="3" fill="#00ff87" opacity="0.22"/><circle cx="164" cy="116" r="3" fill="#00ff87" opacity="0.83"/><circle cx="188" cy="116" r="3" fill="#00ff87" opacity="0.58"/><circle cx="212" cy="116" r="3" fill="#00ff87" opacity="0.24"/><circle cx="236" cy="116" r="3" fill="#00ff87" opacity="0.59"/><circle cx="20" cy="140" r="3" fill="#00ff87" opacity="0.48"/><circle cx="44" cy="140" r="3" fill="#00ff87" opacity="0.60"/><circle cx="68" cy="140" r="3" fill="#00ff87" opacity="0.58"/><circle cx="92" cy="140" r="3" fill="#00ff87" opacity="0.68"/><circle cx="116" cy="140" r="3" fill="#00ff87" opacity="0.61"/><circle cx="140" cy="140" r="3" fill="#00ff87" opacity="0.45"/><circle cx="164" cy="140" r="3" fill="#00ff87" opacity="0.70"/><circle cx="188" cy="140" r="3" fill="#00ff87" opacity="0.99"/><circle cx="212" cy="140" r="3" fill="#00ff87" opacity="0.34"/><circle cx="236" cy="140" r="3" fill="#00ff87" opacity="0.32"/><circle cx="20" cy="164" r="3" fill="#00ff87" opacity="0.45"/><circle cx="44" cy="164" r="3" fill="#00ff87" opacity="0.76"/><circle cx="68" cy="164" r="3" fill="#00ff87" opacity="0.72"/><circle cx="92" cy="164" r="3" fill="#00ff87" opacity="0.35"/><circle cx="116" cy="164" r="3" fill="#00ff87" opacity="0.36"/><circle cx="140" cy="164" r="3" fill="#00ff87" opacity="0.22"/><circle cx="164" cy="164" r="3" fill="#00ff87" opacity="0.35"/><circle cx="188" cy="164" r="3" fill="#00ff87" opacity="0.75"/><circle cx="212" cy="164" r="3" fill="#00ff87" opacity="0.24"/><circle cx="236" cy="164" r="3" fill="#00ff87" opacity="0.22"/><circle cx="20" cy="188" r="3" fill="#00ff87" opacity="0.46"/><circle cx="44" cy="188" r="3" fill="#00ff87" opacity="0.98"/><circle cx="68" cy="188" r="3" fill="#00ff87" opacity="0.20"/><circle cx="92" cy="188" r="3" fill="#00ff87" opacity="0.98"/><circle cx="116" cy="188" r="3" fill="#00ff87" opacity="0.83"/><circle cx="140" cy="188" r="3" fill="#00ff87" opacity="0.98"/><circle cx="164" cy="188" r="3" fill="#00ff87" opacity="0.55"/><circle cx="188" cy="188" r="3" fill="#00ff87" opacity="0.73"/><circle cx="212" cy="188" r="3" fill="#00ff87" opacity="0.75"/><circle cx="236" cy="188" r="3" fill="#00ff87" opacity="0.74"/><circle cx="20" cy="212" r="3" fill="#00ff87" opacity="0.31"/><circle cx="44" cy="212" r="3" fill="#00ff87" opacity="0.53"/><circle cx="68" cy="212" r="3" fill="#00ff87" opacity="0.58"/><circle cx="92" cy="212" r="3" fill="#00ff87" opacity="0.72"/><circle cx="116" cy="212" r="3" fill="#00ff87" opacity="0.93"/><circle cx="140" cy="212" r="3" fill="#00ff87" opacity="0.86"/><circle cx="164" cy="212" r="3" fill="#00ff87" opacity="0.78"/><circle cx="188" cy="212" r="3" fill="#00ff87" opacity="0.90"/><circle cx="212" cy="212" r="3" fill="#00ff87" opacity="0.53"/><circle cx="236" cy="212" r="3" fill="#00ff87" opacity="0.51"/><circle cx="20" cy="236" r="3" fill="#00ff87" opacity="1.00"/><circle cx="44" cy="236" r="3" fill="#00ff87" opacity="0.98"/><circle cx="68" cy="236" r="3" fill="#00ff87" opacity="0.27"/><circle cx="92" cy="236" r="3" fill="#00ff87" opacity="0.76"/><circle cx="116" cy="236" r="3" fill="#00ff87" opacity="0.29"/><circle cx="140" cy="236" r="3" fill="#00ff87" opacity="0.97"/><circle cx="164" cy="236" r="3" fill="#00ff87" opacity="0.71"/><circle cx="188" cy="236" r="3" fill="#00ff87" opacity="0.50"/><circle cx="212" cy="236" r="3" fill="#00ff87" opacity="0.60"/><circle cx="236" cy="236" r="3" fill="#00ff87" opacity="0.68"/></svg>
