<svg xmlns="http://www.w3.org/2000/svg" viewBox="0 0 256 256" width="256" height="256"><rect width="256" height="256" fill="#000000"/><g transform="rotate(120 128 128)"><line x1="-256" y1="0" x2="-256" y2="256" stroke="#00ff87" stroke-width="1.5" opacity="0.60"/><line x1="-242" y1="0" x2="-242" y2="256" stroke="#00ff87" stroke-width="1.5" opacity="0.61"/><line x1="-228" y1="0" x2="-228" y2="256" stroke="#00ff87" stroke-width="1.5" opacity="0.31"/><line x1="-214" y1="0" x2="-214" y2="256" stroke="#00ff87" stroke-width="1.5" opacity="0.68"/><line x1="-200" y1="0" x2="-200" y2="256" stroke="#00ff87" stroke-width="1.5" opacity="0.49"/><line x1="-186" y1="0" x2="-186" y2="256" stroke="#00ff87" stroke-width="1.5" opacity="0.59"/><line x1="-172" y1="0" x2="-172" y2="256" stroke="#00ff87" stroke-width="1.5" opacity="0.39"/><line x1="-158" y1="0" x2="-158" y2="256" stroke="#00ff87" stroke-width="1.5" opacity="0.65"/><line x1="-144" y1="0" x2="-144" y2="256" stroke="#00ff87" stroke-width="1.5" opacity="0.50"/><line x1="-130" y1="0" x2="-130" y2="256" stroke="#00ff87" stroke-width="1.5" opacity="0.34"/><line x1="-116" y1="0" x2="-116" y2="256" stroke="#00ff87" stroke-width="1.5" opacity="0.65"/><line x1="-102" y1="0" x2="-102" y2="256" stroke="#00ff87" stroke-width="1.5" opacity="0.79"/><line x1="-88" y1="0" x2="-88" y2="256" stroke="#00ff87" stroke-width="1.5" opacity="0.46"/><line x1="-74" y1="0" x2="-74" y2="256" stroke="#00ff87" stroke-width="1.5" opacity="0.57"/><line x1="-60" y1="0" x2="-60" y2="256" stroke="#00ff87" stroke-width="1.5" opacity="0.49"/><line x1="-46" y1="0" x2="-46" y2="256" stroke="#00ff87" stroke-width="1.5" opacity="0.60"/><line x1="-32" y1="0" x2="-32" y2="256" stroke="#00ff87" stroke-width="1.5" opacity="0.44"/><line x1="-18" y1="0" x2="-18" y2="256" stroke="#00ff87" stroke-width="1.5" opacity="0.26"/><line x1="-4" y1="0" x2="-4" y2="256" stroke="#00ff87" stroke-width="1.5" opacity="0.70"/><line x1="10" y1="0" x2="10" y2="256" stroke="#00ff87" stroke-width="1.5" opacity="0.59"/><line x1="24" y1="0" x2="24" y2="256" stroke="#00ff87" stroke-width="1.5" opacity="0.33"/><line x1="38" y1="0" x2="38" y2="256" stroke="#00ff87" stroke-width="1.5" opacity="0.79"/><line x1="52" y1="0" x2="52" y2="256" stroke="#00ff87" stroke-width="1.5" opacity="0.28"/><line x1="66" y1="0" x2="66" y2="256" stroke="#00ff87" stroke-width="1.5" opacity="0.67"/><line x1="80" y1="0" x2="80" y2="256" stroke="#00ff87" stroke-width="1.5" opacity="0.65"/><line x1="94" y1="0" x2="94" y2="256" stroke="#00ff87" stroke-width="1.5" opacity="0.42"/><line x1="108" y1="0" x2="108" y2="256" stroke="#00ff87" stroke-width="1.5" opacity="0.55"/><line x1="122" y1="0" x2="122" y2="256" stroke="#00ff87" stroke-width="1.5" opacity="0.42"/><line x1="136" y1="0" x2="136" y2="256" stroke="#00ff87" stroke-width="1.5" opacity="0.74"/><line x1="150" y1="0" x2="150" y2="256" stroke="#00ff87" stroke-width="1.5" opacity="0.32"/><line x1="164" y1="0" x2="164" y2="256" stroke="#00ff87" stroke-width="1.5" opacity="0.70"/><line x1="178" y1="0" x2="178" y2="256" stroke="#00ff87" stroke-width="1.5" opacity="0.81"/><line x1="192" y1="0" x2="192" y2="256" stroke="#00ff87" stroke-width="1.5" opacity="0.56"/><line x1="206" y1="0" x2="206" y2="256" stroke="#00ff87" stroke-width="1.5" opacity="0.60"/><line x1="220" y1="0" x2="220" y2="256" stroke="#00ff87" stroke-width="1.5" opacity="0.68"/><line x1="234" y1="0" x2="234" y2="256" stroke="#00ff87" stroke-width="1.5" opacity="0.33"/><line x1="248" y1="0" x2="248" y2="256" stroke="#00ff87" stroke-width="1.5" opacity="0.82"/><line x1="262" y1="0" x2="262" y2="256" stroke="#00ff87" stroke-width="1.5" opacity="0.39"/><line x1="276" y1="0" x2="276" y2="256" stroke="#00ff87" stroke-width="1.5" opacity="0.64"/><line x1="290" y1="0" x2="290" y2="256" stroke="#00ff87" stroke-width="1.5" opacity="0.79"/><line x1="304" y1="0" x2="304" y2="256" stroke="#00ff87" stroke-width="1.5" opacity="0.44"/><line x1="318" y1="0" x2="318" y2="256" stroke="#00ff87" stroke-width="1.5" opacity="0.27"/><line x1="332" y1="0" x2="332" y2="256" stroke="#00ff87" stroke-width="1.5" opacity="0.81"/><line x1="346" y1="0" x2="346" y2="256" stroke="#00ff87" stroke-width="1.5" opacity="0.58"/><line x1="360" y1="0" x2="360" y2="256" stroke="#00ff87" stroke-width="1.5" opacity="0.29"/><line x1="374" y1="0" x2="374" y2="256" stroke="#00ff87" stroke-width="1.5" opacity="0.44"/><line x1="388" y1="0" x2="388" y2="256" stroke="#00ff87" stroke-width="1.5" opacity="0.30"/><line x1="402" y1="0" x2="402" y2="256" stroke="#00ff87" stroke-width="1.5" opacity="0.35"/><line x1="416" y1="0" x2="416" y2="256" stroke="#00ff87" stroke-width="1.5" opacity="0.58"/><line x1="430" y1="0" x2="430" y2="256" stroke="#00ff87" stroke-width="1.5" opacity="0.28"/><line x1="444" y1="0" x2="444" y2="256" stroke="#00ff87" stroke-width="1.5" opacity="0.71"/><line x1="458" y1="0" x2="458" y2="256" stroke="#00ff87" stroke-width="1.5" opacity="0.69"/><line x1="472" y1="0" x2="472" y2="256" stroke="#00ff87" stroke-width="1.5" opacity="0.63"/><line x1="486" y1="0" x2="486" y2="256" stroke="#00ff87" stroke-width="1.5" opacity="0.73"/><line x1="500" y1="0" x2="500" y2="256" stroke="#00ff87" stroke-width="1.5" opacity="0.29"/></g></svg>
