<svg xmlns="http://www.w3.org/2000/svg" viewBox="0 0 256 256" width="256" height="256"><rect width="256" height="256" fill="#000000"/><rect x="40.00" y="109.81" width="9.12" height="36.38" fill="#00ff87" opacity="0.90"/><rect x="51.12" y="101.17" width="9.12" height="53.66" fill="#00ff87" opacity="0.52"/><rect x="62.25" y="80.14" width="9.12" height="95.72" fill="#00ff87" opacity="0.84"/><rect x="73.38" y="48.70" width="9.12" height="158.59" fill="#00ff87" opacity="0.62"/><rect x="84.50" y="68.89" width="9.12" height="118.23" fill="#00ff87" opacity="0.88"/><rect x="95.62" y="116.38" width="9.12" height="23.25" fill="#00ff87" opacity="0.72"/><rect x="106.75" y="61.99" width="9.12" height="132.02" fill="#00ff87" opacity="0.44"/><rect x="117.88" y="79.81" width="9.12" height="96.38" fill="#00ff87" opacity="0.91"/><rect x="129.00" y="61.32" width="9.12" height="133.37" fill="#00ff87" opacity="0.45"/><rect x="140.12" y="103.02" width="9.12" height="49.96" fill="#00ff87" opacity="0.59"/><rect x="151.25" y="88.75" width="9.12" height="78.49" fill="#00ff87" opacity="0.85"/><rect x="162.38" y="104.60" width="9.12" height="46.79" fill="#00ff87" opacity="0.58"/><rect x="173.50" y="110.97" width="9.12" height="34.06" fill="#00ff87" opacity="0.41"/><rect x="184.62" y="81.02" width="9.12" height="93.96" fill="#00ff87" opacity="0.66"/><rect x="195.75" y="105.67" width="9.12" height="44.66" fill="#00ff87" opacity="0.79"/><rect x="206.88" y="113.68" width="9.12" height="28.64" fill="#00ff87" opacity="0.91"/></svg>
