<svg xmlns="http://www.w3.org/2000/svg" viewBox="0 0 256 256" width="256" height="256"><rect width="256" height="256" fill="#000000"/><rect x="40.00" y="49.25" width="6.90" height="157.49" fill="#00ff87" opacity="0.72"/><rect x="48.90" y="70.73" width="6.90" height="114.54" fill="#00ff87" opacity="0.82"/><rect x="57.80" y="75.43" width="6.90" height="105.14" fill="#00ff87" opacity="0.66"/><rect x="66.70" y="96.75" width="6.90" height="62.51" fill="#00ff87" opacity="0.46"/><rect x="75.60" y="101.64" width="6.90" height="52.72" fill="#00ff87" opacity="0.84"/><rect x="84.50" y="71.41" width="6.90" height="113.17" fill="#00ff87" opacity="0.69"/><rect x="93.40" y="116.58" width="6.90" height="22.85" fill="#00ff87" opacity="0.54"/><rect x="102.30" y="76.82" width="6.90" height="102.37" fill="#00ff87" opacity="0.70"/><rect x="111.20" y="54.15" width="6.90" height="147.69" fill="#00ff87" opacity="0.76"/><rect x="120.10" y="68.62" width="6.90" height="118.76" fill="#00ff87" opacity="0.80"/><rect x="129.00" y="62.30" width="6.90" height="131.40" fill="#00ff87" opacity="0.41"/><rect x="137.90" y="83.87" width="6.90" height="88.25" fill="#00ff87" opacity="0.73"/><rect x="146.80" y="97.03" width="6.90" height="61.95" fill="#00ff87" opacity="0.54"/><rect x="155.70" y="54.55" width="6.90" height="146.91" fill="#00ff87" opacity="0.64"/><rect x="164.60" y="69.52" width="6.90" height="116.96" fill="#00ff87" opacity="0.59"/><rect x="173.50" y="115.80" width="6.90" height="24.39" fill="#00ff87" opacity="0.52"/><rect x="182.40" y="88.29" width="6.90" height="79.43" fill="#00ff87" opacity="0.95"/><rect x="191.30" y="93.05" width="6.90" height="69.90" fill="#00ff87" opacity="0.83"/><rect x="200.20" y="59.18" width="6.90" height="137.64" fill="#00ff87" opacity="0.49"/><rect x="209.10" y="114.35" width="6.90" height="27.31" fill="#00ff87" opacity="0.58"/></svg>
