<svg xmlns="http://www.w3.org/2000/svg" viewBox="0 0 256 256" width="256" height="256"><rect width="256" height="256" fill="#000000"/><rect x="40.00" y="63.50" width="9.12" height="129.00" fill="#00ff87" opacity="0.68"/><rect x="51.12" y="51.74" width="9.12" height="152.51" fill="#00ff87" opacity="0.85"/><rect x="62.25" y="74.89" width="9.12" height="106.22" fill="#00ff87" opacity="0.54"/><rect x="73.38" y="48.44" width="9.12" height="159.11" fill="#00ff87" opacity="0.69"/><rect x="84.50" y="74.70" width="9.12" height="106.59" fill="#00ff87" opacity="0.70"/><rect x="95.62" y="77.90" width="9.12" height="100.20" fill="#00ff87" opacity="0.95"/><rect x="106.75" y="106.45" width="9.12" height="43.10" fill="#00ff87" opacity="0.67"/><rect x="117.88" y="82.23" width="9.12" height="91.54" fill="#00ff87" opacity="0.96"/><rect x="129.00" y="116.03" width="9.12" height="23.94" fill="#00ff87" opacity="0.94"/><rect x="140.12" y="58.67" width="9.12" height="138.65" fill="#00ff87" opacity="0.55"/><rect x="151.25" y="91.50" width="9.12" height="72.99" fill="#00ff87" opacity="0.49"/><rect x="162.38" y="84.75" width="9.12" height="86.50" fill="#00ff87" opacity="0.89"/><rect x="173.50" y="91.10" width="9.12" height="73.80" fill="#00ff87" opacity="0.70"/><rect x="184.62" y="110.42" width="9.12" height="35.16" fill="#00ff87" opacity="0.55"/><rect x="195.75" y="90.48" width="9.12" height="75.04" fill="#00ff87" opacity="0.48"/><rect x="206.88" y="94.12" width="9.12" height="67.76" fill="#00ff87" opacity="0.50"/></svg>
