<svg xmlns="http://www.w3.org/2000/svg" viewBox="0 0 256 256" width="256" height="256"><rect width="256" height="256" fill="#000000"/><polyline points="0,60.00 4,66.26 8,72.37 12,78.22 16,83.67 20,88.60 24,92.90 28,96.47 32,99.25 36,101.17 40,102.18 44,102.27 48,101.43 52,99.68 56,97.06 60,93.63 64,89.46 68,84.64 72,79.28 76,73.50 80,67.42 84,61.18 88,54.92 92,48.76 96,42.86 100,37.32 104,32.29 108,27.86 112,24.14 116,21.21 120,19.12 124,17.94 128,17.68 132,18.34 136,19.92 140,22.38 144,25.67 148,29.70 152,34.41 156,39.67 160,45.38 164,51.41 168,57.63 172,63.90 176,70.09 180,76.06 184,81.67 188,86.80 192,91.35 196,95.21 200,98.30 204,100.55 208,101.91 212,102.35 216,101.85 220,100.45 224,98.15 228,95.01 232,91.11 236,86.53 240,81.36 244,75.72 248,69.74 252,63.55 256,57.28" fill="none" stroke="#00ff87" stroke-width="2" opacity="0.40"/><polyline points="0,126.13 4,129.68 8,132.69 12,135.09 16,136.86 20,137.96 24,138.39 28,138.12 32,137.16 36,135.54 40,133.27 44,130.40 48,126.96 52,123.01 56,118.62 60,113.86 64,108.79 68,103.50 72,98.08 76,92.61 80,87.18 84,81.88 88,76.78 92,71.97 96,67.52 100,63.52 104,60.01 108,57.06 112,54.71 116,53.01 120,51.97 124,51.61 128,51.94 132,52.96 136,54.65 140,56.97 144,59.90 148,63.39 152,67.38 156,71.81 160,76.61 164,81.70 168,87.00 172,92.43 176,97.90 180,103.32 184,108.61 188,113.69 192,118.47 196,122.87 200,126.83 204,130.29 208,133.18 212,135.47 216,137.12 220,138.10 224,138.39 228,137.99 232,136.91 236,135.16 240,132.78 244,129.79 248,126.26 252,122.22 256,117.75" fill="none" stroke="#00ff87" stroke-width="2" opacity="0.55"/><polyline points="0,171.83 4,171.24 8,169.85 12,167.66 16,164.74 20,161.13 24,156.91 28,152.15 32,146.96 36,141.44 40,135.68 44,129.82 48,123.96 52,118.22 56,112.71 60,107.55 64,102.82 68,98.63 72,95.06 76,92.18 80,90.05 84,88.70 88,88.16 92,88.46 96,89.57 100,91.47 104,94.14 108,97.52 112,101.53 116,106.11 120,111.15 124,116.57 128,122.26 132,128.09 136,133.97 140,139.76 144,145.37 148,150.67 152,155.56 156,159.95 160,163.75 164,166.88 168,169.29 172,170.92 176,171.74 180,171.74 184,170.92 188,169.29 192,166.89 196,163.76 200,159.96 204,155.58 208,150.69 212,145.39 216,139.78 220,133.99 224,128.11 228,122.28 232,116.59 236,111.17 240,106.12 244,101.55 248,97.53 252,94.15 256,91.48" fill="none" stroke="#00ff87" stroke-width="2" opacity="0.70"/><polyline points="0,198.42 4,189.84 8,180.12 12,169.70 16,159.07 20,148.70 24,139.10 28,130.68 32,123.86 36,118.94 40,116.14 44,115.61 48,117.36 52,121.32 56,127.29 60,135.01 64,144.11 68,154.18 72,164.75 76,175.33 80,185.44 84,194.59 88,202.39 92,208.45 96,212.50 100,214.36 104,213.93 108,211.24 112,206.42 116,199.67 120,191.33 124,181.77 128,171.43 132,160.79 136,150.35 140,140.59 144,131.96 148,124.85 152,119.60 156,116.45 160,115.54 164,116.92 168,120.53 172,126.19 176,133.64 180,142.55 184,152.49 188,163.01 192,173.63 196,183.84 200,193.19 204,201.23 208,207.59 212,211.99 216,214.21 220,214.16 224,211.83 228,207.34 232,200.89 236,192.78 240,183.39 244,173.15 248,162.53 252,152.02 256,142.11" fill="none" stroke="#00ff87" stroke-width="2" opacity="0.85"/></svg>
