<svg xmlns="http://www.w3.org/2000/svg" viewBox="0 0 256 256" width="256" height="256"><rect width="256" height="256" fill="#000000"/><polyline points="0,60.00 4,63.32 8,66.61 12,69.82 16,72.91 20,75.86 24,78.62 28,81.17 32,83.47 36,85.50 40,87.24 44,88.66 48,89.75 52,90.49 56,90.89 60,90.92 64,90.60 68,89.92 72,88.90 76,87.54 80,85.86 84,83.89 88,81.63 92,79.13 96,76.41 100,73.49 104,70.42 108,67.23 112,63.96 116,60.64 120,57.31 124,54.02 128,50.79 132,47.67 136,44.69 140,41.89 144,39.30 148,36.95 152,34.86 156,33.07 160,31.59 164,30.43 168,29.62 172,29.16 176,29.06 180,29.31 184,29.92 188,30.88 192,32.18 196,33.79 200,35.71 204,37.91 208,40.37 212,43.05 216,45.93 220,48.97 224,52.14 228,55.40 232,58.72 236,62.05 240,65.35 244,68.60 248,71.74 252,74.75 256,77.58" fill="none" stroke="#00ff87" stroke-width="2" opacity="0.40"/><polyline points="0,153.74 4,158.20 8,161.31 12,162.90 16,162.90 20,161.32 24,158.23 28,153.78 32,148.18 36,141.71 40,134.67 44,127.41 48,120.27 52,113.60 56,107.72 60,102.91 64,99.42 68,97.39 72,96.94 76,98.08 80,100.76 84,104.85 88,110.15 92,116.41 96,123.32 100,130.56 104,137.77 108,144.60 112,150.73 116,155.86 120,159.75 124,162.20 128,163.10 132,162.40 136,160.14 140,156.43 144,151.44 148,145.42 152,138.66 156,131.48 160,124.23 164,117.25 168,110.89 172,105.46 176,101.20 180,98.33 184,96.99 188,97.25 192,99.08 196,102.40 200,107.05 204,112.81 208,119.39 212,126.49 216,133.76 220,140.85 224,147.41 228,153.13 232,157.74 236,161.01 240,162.79 244,162.99 248,161.59 252,158.67 256,154.37" fill="none" stroke="#00ff87" stroke-width="2" opacity="0.70"/></svg>
