<svg xmlns="http://www.w3.org/2000/svg" viewBox="0 0 256 256" width="256" height="256"><rect width="256" height="256" fill="#000000"/><circle cx="28" cy="28" r="3" fill="#00ff87" opacity="0.64"/><circle cx="68" cy="28" r="3" fill="#00ff87" opacity="0.35"/><circle cx="108" cy="28" r="3" fill="#00ff87" opacity="0.72"/><circle cx="148" cy="28" r="3" fill="#00ff87" opacity="0.79"/><circle cx="188" cy="28" r="3" fill="#00ff87" opacity="0.60"/><circle cx="228" cy="28" r="3" fill="#00ff87" opacity="0.34"/><circle cx="28" cy="68" r="3" fill="#00ff87" opacity="0.88"/><circle cx="68" cy="68" r="3" fill="#00ff87" opacity="0.95"/><circle cx="108" cy="68" r="3" fill="#00ff87" opacity="0.55"/><circle cx="148" cy="68" r="3" fill="#00ff87" opacity="0.71"/><circle cx="188" cy="68" r="3" fill="#00ff87" opacity="0.92"/><circle cx="228" cy="68" r="3" fill="#00ff87" opacity="0.97"/><circle cx="28" cy="108" r="3" fill="#00ff87" opacity="0.75"/><circle cx="68" cy="108" r="3" fill="#00ff87" opacity="0.66"/><circle cx="108" cy="108" r="3" fill="#00ff87" opacity="0.70"/><circle cx="148" cy="108" r="3" fill="#00ff87" opacity="0.66"/><circle cx="188" cy="108" r="3" fill="#00ff87" opacity="0.51"/><circle cx="228" cy="108" r="3" fill="#00ff87" opacity="0.62"/><circle cx="28" cy="148" r="3" fill="#00ff87" opacity="0.74"/><circle cx="68" cy="148" r="3" fill="#00ff87" opacity="0.89"/><circle cx="108" cy="148" r="3" fill="#00ff87" opacity="0.91"/><circle cx="148" cy="148" r="3" fill="#00ff87" opacity="0.83"/><circle cx="188" cy="148" r="3" fill="#00ff87" opacity="0.64"/><circle cx="228" cy="148" r="3" fill="#00ff87" opacity="0.58"/><circle cx="28" cy="188" r="3" fill="#00ff87" opacity="0.32"/><circle cx="68" cy="188" r="3" fill="#00ff87" opacity="0.65"/><circle cx="108" cy="188" r="3" fill="#00ff87" opacity="0.94"/><circle cx="148" cy="188" r="3" fill="#00ff87" opacity="0.51"/><circle cx="188" cy="188" r="3" fill="#00ff87" opacity="0.98"/><circle cx="228" cy="188" r="3" fill="#00ff87" opacity="0.20"/><circle cx="28" cy="228" r="3" fill="#00ff87" opacity="0.65"/><circle cx="68" cy="228" r="3" fill="#00ff87" opacity="0.79"/><circle cx="108" cy="228" r="3" fill="#00ff87" opacity="0.97"/><circle cx="148" cy="228" r="3" fill="#00ff87" opacity="0.56"/><circle cx="188" cy="228" r="3" fill="#00ff87" opacity="0.86"/><circle cx="228" cy="228" r="3" fill="#00ff87" opacity="0.99"/></svg>
