<svg xmlns="http://www.w3.org/2000/svg" viewBox="0 0 256 256" width="256" height="256"><rect width="256" height="256" fill="#000000"/><polyline points="0,60.00 4,64.39 8,68.68 12,72.77 16,76.59 20,80.04 24,83.05 28,85.55 32,87.49 36,88.82 40,89.52 44,89.56 48,88.96 52,87.71 56,85.85 60,83.43 64,80.49 68,77.09 72,73.32 76,69.25 80,64.99 84,60.61 88,56.22 92,51.91 96,47.78 100,43.92 104,40.41 108,37.33 112,34.76 116,32.74 120,31.33 124,30.54 128,30.41 132,30.92 136,32.08 140,33.86 144,36.21 148,39.08 152,42.42 156,46.14 160,50.17 164,54.42 168,58.79 172,63.18 176,67.51 180,71.67 184,75.57 188,79.13 192,82.27 196,84.92 200,87.01 204,88.52 208,89.39 212,89.61 216,89.19 220,88.12 224,86.42 228,84.15 232,81.35 236,78.07 240,74.39 244,70.40 248,66.18 252,61.82 256,57.42" fill="none" stroke="#00ff87" stroke-width="2" opacity="0.40"/><polyline points="0,142.41 4,148.17 8,152.53 12,155.32 16,156.46 20,155.91 24,153.69 28,149.87 32,144.58 36,138.00 40,130.35 44,121.90 48,112.94 52,103.76 56,94.68 60,86.00 64,78.03 68,71.03 72,65.25 76,60.87 80,58.05 84,56.88 88,57.40 92,59.59 96,63.39 100,68.66 104,75.22 108,82.85 112,91.28 116,100.24 120,109.42 124,118.51 128,127.19 132,135.18 136,142.19 140,148.00 144,152.40 148,155.25 152,156.45 156,155.96 160,153.79 164,150.02 168,144.77 172,138.24 176,130.62 180,122.20 184,113.24 188,104.06 192,94.98 196,86.28 200,78.28 204,71.25 208,65.42 212,60.99 216,58.11 220,56.89 224,57.35 228,59.49 232,63.24 236,68.46 240,74.98 244,82.58 248,90.99 252,99.94 256,109.11" fill="none" stroke="#00ff87" stroke-width="2" opacity="0.60"/><polyline points="0,177.95 4,177.57 8,176.66 12,175.23 16,173.31 20,170.95 24,168.20 28,165.12 32,161.78 36,158.25 40,154.62 44,150.95 48,147.34 52,143.86 56,140.59 60,137.60 64,134.97 68,132.73 72,130.96 76,129.68 80,128.92 84,128.71 88,129.03 92,129.90 96,131.29 100,133.16 104,135.49 108,138.20 112,141.25 116,144.57 120,148.09 124,151.72 128,155.38 132,159.00 136,162.50 140,165.79 144,168.80 148,171.48 152,173.75 156,175.57 160,176.89 164,177.70 168,177.96 172,177.68 176,176.87 180,175.53 184,173.69 188,171.41 192,168.73 196,165.70 200,162.41 204,158.91 208,155.29 212,151.62 216,147.99 220,144.48 224,141.17 228,138.13 232,135.42 236,133.11 240,131.25 244,129.87 248,129.02 252,128.70 256,128.93" fill="none" stroke="#00ff87" stroke-width="2" opacity="0.80"/></svg>
