<svg xmlns="http://www.w3.org/2000/svg" viewBox="0 0 256 256" width="256" height="256"><rect width="256" height="256" fill="#000000"/><line x1="48.0" y1="68.0" x2="88.0" y2="68.0" stroke="#00ff87" stroke-width="2" opacity="0.86"/><line x1="68.0" y1="48.0" x2="68.0" y2="88.0" stroke="#00ff87" stroke-width="2" opacity="0.86"/><line x1="108.0" y1="68.0" x2="148.0" y2="68.0" stroke="#00ff87" stroke-width="2" opacity="0.67"/><line x1="128.0" y1="48.0" x2="128.0" y2="88.0" stroke="#00ff87" stroke-width="2" opacity="0.67"/><line x1="168.0" y1="68.0" x2="208.0" y2="68.0" stroke="#00ff87" stroke-width="2" opacity="0.57"/><line x1="188.0" y1="48.0" x2="188.0" y2="88.0" stroke="#00ff87" stroke-width="2" opacity="0.57"/><line x1="48.0" y1="128.0" x2="88.0" y2="128.0" stroke="#00ff87" stroke-width="2" opacity="0.83"/><line x1="68.0" y1="108.0" x2="68.0" y2="148.0" stroke="#00ff87" stroke-width="2" opacity="0.83"/><line x1="108.0" y1="128.0" x2="148.0" y2="128.0" stroke="#00ff87" stroke-width="2" opacity="0.97"/><line x1="128.0" y1="108.0" x2="128.0" y2="148.0" stroke="#00ff87" stroke-width="2" opacity="0.97"/><line x1="168.0" y1="128.0" x2="208.0" y2="128.0" stroke="#00ff87" stroke-width="2" opacity="0.73"/><line x1="188.0" y1="108.0" x2="188.0" y2="148.0" stroke="#00ff87" stroke-width="2" opacity="0.73"/><line x1="48.0" y1="188.0" x2="88.0" y2="188.0" stroke="#00ff87" stroke-width="2" opacity="0.31"/><line x1="68.0" y1="168.0" x2="68.0" y2="208.0" stroke="#00ff87" stroke-width="2" opacity="0.31"/><line x1="108.0" y1="188.0" x2="148.0" y2="188.0" stroke="#00ff87" stroke-width="2" opacity="0.52"/><line x1="128.0" y1="168.0" x2="128.0" y2="208.0" stroke="#00ff87" stroke-width="2" opacity="0.52"/><line x1="168.0" y1="188.0" x2="208.0" y2="188.0" stroke="#00ff87" stroke-width="2" opacity="0.94"/><line x1="188.0" y1="168.0" x2="188.0" y2="208.0" stroke="#00ff87" stroke-width="2" opacity="0.94"/></svg>
