<svg xmlns="http://www.w3.org/2000/svg" viewBox="0 0 256 256" width="256" height="256"><rect width="256" height="256" fill="#000000"/><rect x="40.00" y="108.31" width="6.90" height="39.37" fill="#00ff87" opacity="0.79"/><rect x="48.90" y="70.68" width="6.90" height="114.64" fill="#00ff87" opacity="0.77"/><rect x="57.80" y="49.91" width="6.90" height="156.18" fill="#00ff87" opacity="0.42"/><rect x="66.70" y="78.34" width="6.90" height="99.33" fill="#00ff87" opacity="0.99"/><rect x="75.60" y="81.04" width="6.90" height="93.92" fill="#00ff87" opacity="0.78"/><rect x="84.50" y="96.40" width="6.90" height="63.20" fill="#00ff87" opacity="0.49"/><rect x="93.40" y="57.45" width="6.90" height="141.10" fill="#00ff87" opacity="0.45"/><rect x="102.30" y="59.92" width="6.90" height="136.15" fill="#00ff87" opacity="0.63"/><rect x="111.20" y="83.96" width="6.90" height="88.08" fill="#00ff87" opacity="0.43"/><rect x="120.10" y="115.85" width="6.90" height="24.29" fill="#00ff87" opacity="0.88"/><rect x="129.00" y="99.56" width="6.90" height="56.88" fill="#00ff87" opacity="0.67"/><rect x="137.90" y="98.82" width="6.90" height="58.37" fill="#00ff87" opacity="0.42"/><rect x="146.80" y="99.92" width="6.90" height="56.16" fill="#00ff87" opacity="0.83"/><rect x="155.70" y="77.92" width="6.90" height="100.16" fill="#00ff87" opacity="0.53"/><rect x="164.60" y="69.77" width="6.90" height="116.46" fill="#00ff87" opacity="0.55"/><rect x="173.50" y="107.28" width="6.90" height="41.44" fill="#00ff87" opacity="0.65"/><rect x="182.40" y="92.10" width="6.90" height="71.79" fill="#00ff87" opacity="0.46"/><rect x="191.30" y="66.70" width="6.90" height="122.60" fill="#00ff87" opacity="0.80"/><rect x="200.20" y="72.63" width="6.90" height="110.73" fill="#00ff87" opacity="0.98"/><rect x="209.10" y="60.47" width="6.90" height="135.07" fill="#00ff87" opacity="0.69"/></svg>
