<svg xmlns="http://www.w3.org/2000/svg" viewBox="0 0 256 256" width="256" height="256"><rect width="256" height="256" fill="#000000"/><circle cx="16" cy="16" r="3" fill="#00ff87" opacity="0.68"/><circle cx="48" cy="16" r="3" fill="#00ff87" opacity="0.56"/><circle cx="80" cy="16" r="3" fill="#00ff87" opacity="0.45"/><circle cx="112" cy="16" r="3" fill="#00ff87" opacity="0.53"/><circle cx="144" cy="16" r="3" fill="#00ff87" opacity="0.26"/><circle cx="176" cy="16" r="3" fill="#00ff87" opacity="0.80"/><circle cx="208" cy="16" r="3" fill="#00ff87" opacity="0.36"/><circle cx="240" cy="16" r="3" fill="#00ff87" opacity="0.43"/><circle cx="16" cy="48" r="3" fill="#00ff87" opacity="0.73"/><circle cx="48" cy="48" r="3" fill="#00ff87" opacity="0.77"/><circle cx="80" cy="48" r="3" fill="#00ff87" opacity="0.42"/><circle cx="112" cy="48" r="3" fill="#00ff87" opacity="0.78"/><circle cx="144" cy="48" r="3" fill="#00ff87" opacity="0.55"/><circle cx="176" cy="48" r="3" fill="#00ff87" opacity="0.32"/><circle cx="208" cy="48" r="3" fill="#00ff87" opacity="0.66"/><circle cx="240" cy="48" r="3" fill="#00ff87" opacity="0.71"/><circle cx="16" cy="80" r="3" fill="#00ff87" opacity="0.56"/><circle cx="48" cy="80" r="3" fill="#00ff87" opacity="0.71"/><circle cx="80" cy="80" r="3" fill="#00ff87" opacity="0.89"/><circle cx="112" cy="80" r="3" fill="#00ff87" opacity="0.91"/><circle cx="144" cy="80" r="3" fill="#00ff87" opacity="0.76"/><circle cx="176" cy="80" r="3" fill="#00ff87" opacity="0.73"/><circle cx="208" cy="80" r="3" fill="#00ff87" opacity="0.80"/><circle cx="240" cy="80" r="3" fill="#00ff87" opacity="0.83"/><circle cx="16" cy="112" r="3" fill="#00ff87" opacity="0.35"/><circle cx="48" cy="112" r="3" fill="#00ff87" opacity="0.46"/><circle cx="80" cy="112" r="3" fill="#00ff87" opacity="0.52"/><circle cx="112" cy="112" r="3" fill="#00ff87" opacity="0.86"/><circle cx="144" cy="112" r="3" fill="#00ff87" opacity="0.81"/><circle cx="176" cy="112" r="3" fill="#00ff87" opacity="0.43"/><circle cx="208" cy="112" r="3" fill="#00ff87" opacity="0.82"/><circle cx="240" cy="112" r="3" fill="#00ff87" opacity="0.88"/><circle cx="16" cy="144" r="3" fill="#00ff87" opacity="0.65"/><circle cx="48" cy="144" r="3" fill="#00ff87" opacity="0.86"/><circle cx="80" cy="144" r="3" fill="#00ff87" opacity="0.40"/><circle cx="112" cy="144" r="3" fill="#00ff87" opacity="0.24"/><circle cx="144" cy="144" r="3" fill="#00ff87" opacity="0.41"/><circle cx="176" cy="144" r="3" fill="#00ff87" opacity="0.40"/><circle cx="208" cy="144" r="3" fill="#00ff87" opacity="0.27"/><circle cx="240" cy="144" r="3" fill="#00ff87" opacity="0.69"/><circle cx="16" cy="176" r="3" fill="#00ff87" opacity="0.69"/><circle cx="48" cy="176" r="3" fill="#00ff87" opacity="0.48"/><circle cx="80" cy="176" r="3" fill="#00ff87" opacity="0.94"/><circle cx="112" cy="176" r="3" fill="#00ff87" opacity="0.61"/><circle cx="144" cy="176" r="3" fill="#00ff87" opacity="0.82"/><circle cx="176" cy="176" r="3" fill="#00ff87" opacity="0.99"/><circle cx="208" cy="176" r="3" fill="#00ff87" opacity="0.59"/><circle cx="240" cy="176" r="3" fill="#00ff87" opacity="0.61"/><circle cx="16" cy="208" r="3" fill="#00ff87" opacity="0.39"/><circle cx="48" cy="208" r="3" fill="#00ff87" opacity="0.20"/><circle cx="80" cy="208" r="3" fill="#00ff87" opacity="0.79"/><circle cx="112" cy="208" r="3" fill="#00ff87" opacity="0.65"/><circle cx="144" cy="208" r="3" fill="#00ff87" opacity="0.64"/><circle cx="176" cy="208" r="3" fill="#00ff87" opacity="0.94"/><circle cx="208" cy="208" r="3" fill="#00ff87" opacity="0.65"/><circle cx="240" cy="208" r="3" fill="#00ff87" opacity="0.26"/><circle cx="16" cy="240" r="3" fill="#00ff87" opacity="0.72"/><circle cx="48" cy="240" r="3" fill="#00ff87" opacity="0.51"/><circle cx="80" cy="240" r="3" fill="#00ff87" opacity="0.86"/><circle cx="112" cy="240" r="3" fill="#00ff87" opacity="0.62"/><circle cx="144" cy="240" r="3" fill="#00ff87" opacity="0.71"/><circle cx="176" cy="240" r="3" fill="#00ff87" opacity="0.94"/><circle cx="208" cy="240" r="3" fill="#00ff87" opacity="0.36"/><circle cx="240" cy="240" r="3" fill="#00ff87" opacity="0.41"/></svg>
