<svg xmlns="http://www.w3.org/2000/svg" viewBox="0 0 256 256" width="256" height="256"><rect width="256" height="256" fill="#000000"/><polyline points="0,60.00 4,68.21 8,76.11 12,83.39 16,89.79 20,95.05 24,98.98 28,101.42 32,102.29 36,101.55 40,99.22 44,95.41 48,90.24 52,83.93 56,76.70 60,68.84 64,60.64 68,52.42 72,44.49 76,37.14 80,30.67 84,25.31 88,21.28 92,18.71 96,17.72 100,18.34 104,20.54 108,24.25 112,29.31 116,35.55 120,42.71 124,50.53 128,58.72 132,66.95 136,74.91 140,82.31 144,88.86 148,94.32 152,98.46 156,101.14 160,102.26 164,101.77 168,99.68 172,96.09 176,91.13 180,84.98 184,77.87 188,70.09 192,61.93 196,53.69 200,45.69 204,38.23 208,31.61 212,26.06 216,21.81 220,19.01 224,17.77 228,18.14 232,20.10 236,23.58 240,28.44 244,34.51 248,41.55 252,49.29 256,57.43" fill="none" stroke="#00ff87" stroke-width="2" opacity="0.40"/><polyline points="0,159.77 4,162.94 8,165.66 12,167.89 16,169.61 20,170.78 24,171.40 28,171.46 32,170.95 36,169.88 40,168.27 44,166.13 48,163.51 52,160.42 56,156.92 60,153.06 64,148.88 68,144.44 72,139.81 76,135.04 80,130.20 84,125.36 88,120.59 92,115.94 96,111.48 100,107.28 104,103.39 108,99.86 112,96.74 116,94.07 120,91.89 124,90.24 128,89.12 132,88.56 136,88.57 140,89.14 144,90.27 148,91.95 152,94.14 156,96.81 160,99.95 164,103.49 168,107.39 172,111.60 176,116.06 180,120.71 184,125.49 188,130.33 192,135.17 196,139.93 200,144.56 204,148.99 208,153.17 212,157.02 216,160.51 220,163.58 224,166.20 228,168.32 232,169.91 236,170.97 240,171.46 244,171.39 248,170.76 252,169.57 256,167.84" fill="none" stroke="#00ff87" stroke-width="2" opacity="0.70"/></svg>
