<svg xmlns="http://www.w3.org/2000/svg" viewBox="0 0 256 256" width="256" height="256"><rect width="256" height="256" fill="#000000"/><polyline points="0,60.00 4,69.52 8,78.55 12,86.63 16,93.34 20,98.35 24,101.39 28,102.31 32,101.06 36,97.70 40,92.42 44,85.47 48,77.22 52,68.08 56,58.53 60,49.05 64,40.14 68,32.24 72,25.77 76,21.05 80,18.33 84,17.74 88,19.32 92,22.99 96,28.55 100,35.72 104,44.14 108,53.37 112,62.94 116,72.36 120,81.15 124,88.85 128,95.07 132,99.50 136,101.90 140,102.16 144,100.25 148,96.28 152,90.45 156,83.06 160,74.49 164,65.17 168,55.59 172,46.24 176,37.59 180,30.09 184,24.12 188,20.00 192,17.92 196,18.00 200,20.23 204,24.50 208,30.59 212,38.19 216,46.90 220,56.29 224,65.87 228,75.14 232,83.64 236,90.93 240,96.64 244,100.46 248,102.21 252,101.80 256,99.24" fill="none" stroke="#00ff87" stroke-width="2" opacity="0.40"/><polyline points="0,146.50 4,149.59 8,151.75 12,152.85 16,152.86 20,151.76 24,149.62 28,146.53 32,142.65 36,138.16 40,133.27 44,128.23 48,123.27 52,118.63 56,114.55 60,111.21 64,108.77 68,107.35 72,107.03 76,107.81 80,109.66 84,112.49 88,116.17 92,120.51 96,125.30 100,130.33 104,135.33 108,140.08 112,144.35 116,147.92 120,150.63 124,152.35 128,152.99 132,152.52 136,150.97 140,148.41 144,144.96 148,140.80 152,136.11 156,131.12 160,126.09 164,121.24 168,116.81 172,113.02 176,110.05 180,108.03 184,107.08 188,107.23 192,108.47 196,110.76 200,113.96 204,117.95 208,122.51 212,127.43 216,132.48 220,137.40 224,141.97 228,145.97 232,149.19 236,151.49 240,152.76 244,152.93 248,151.99 252,150.00 256,147.04" fill="none" stroke="#00ff87" stroke-width="2" opacity="0.70"/></svg>
