<svg xmlns="http://www.w3.org/2000/svg" viewBox="0 0 256 256" width="256" height="256"><rect width="256" height="256" fill="#000000"/><polyline points="0,60.00 4,66.58 8,73.02 12,79.20 16,84.99 20,90.27 24,94.93 28,98.89 32,102.05 36,104.37 40,105.78 44,106.26 48,105.80 52,104.41 56,102.11 60,98.97 64,95.03 68,90.37 72,85.11 76,79.33 80,73.15 84,66.72 88,60.14 92,53.56 96,47.12 100,40.93 104,35.13 108,29.84 112,25.16 116,21.19 120,18.00 124,15.67 128,14.24 132,13.74 136,14.18 140,15.55 144,17.83 148,20.96 152,24.88 156,29.52 160,34.78 164,40.55 168,46.71 172,53.14 176,59.72 180,66.30 184,72.75 188,78.94 192,84.75 196,90.05 200,94.75 204,98.74 208,101.94 212,104.29 216,105.73 220,106.25 224,105.84 228,104.48 232,102.23 236,99.12 240,95.21 244,90.59 248,85.34 252,79.58 256,73.43" fill="none" stroke="#00ff87" stroke-width="2" opacity="0.40"/><polyline points="0,141.62 4,144.64 8,147.34 12,149.67 16,151.63 20,153.19 24,154.34 28,155.07 32,155.38 36,155.25 40,154.70 44,153.73 48,152.34 52,150.55 56,148.37 60,145.83 64,142.94 68,139.73 72,136.23 76,132.48 80,128.49 84,124.31 88,119.98 92,115.53 96,111.00 100,106.43 104,101.87 108,97.34 112,92.90 116,88.58 120,84.42 124,80.46 128,76.73 132,73.25 136,70.08 140,67.22 144,64.72 148,62.58 152,60.83 156,59.49 160,58.55 164,58.05 168,57.97 172,58.32 176,59.09 180,60.29 184,61.89 188,63.89 192,66.26 196,68.99 200,72.05 204,75.41 208,79.05 212,82.94 216,87.03 220,91.29 224,95.69 228,100.19 232,104.74 236,109.32 240,113.86 244,118.35 248,122.73 252,126.97 256,131.03" fill="none" stroke="#00ff87" stroke-width="2" opacity="0.60"/><polyline points="0,176.16 4,175.95 8,175.48 12,174.75 16,173.77 20,172.56 24,171.12 28,169.47 32,167.63 36,165.62 40,163.47 44,161.21 48,158.85 52,156.43 56,153.97 60,151.50 64,149.05 68,146.66 72,144.34 76,142.13 80,140.05 84,138.12 88,136.37 92,134.82 96,133.49 100,132.39 104,131.53 108,130.92 112,130.58 116,130.51 120,130.70 124,131.15 128,131.87 132,132.84 136,134.04 140,135.47 144,137.11 148,138.94 152,140.93 156,143.08 160,145.34 164,147.69 168,150.11 172,152.57 176,155.04 180,157.49 184,159.88 188,162.21 192,164.43 196,166.51 200,168.45 204,170.21 208,171.77 212,173.11 216,174.23 220,175.10 224,175.72 228,176.07 232,176.16 236,175.98 240,175.54 244,174.84 248,173.89 252,172.70 256,171.28" fill="none" stroke="#00ff87" stroke-width="2" opacity="0.80"/></svg>
