<svg xmlns="http://www.w3.org/2000/svg" viewBox="0 0 256 256" width="256" height="256"><rect width="256" height="256" fill="#000000"/><circle cx="16" cy="16" r="2" fill="#00ff87" opacity="0.33"/><circle cx="48" cy="16" r="2" fill="#00ff87" opacity="0.86"/><circle cx="80" cy="16" r="2" fill="#00ff87" opacity="0.56"/><circle cx="112" cy="16" r="2" fill="#00ff87" opacity="0.94"/><circle cx="144" cy="16" r="2" fill="#00ff87" opacity="0.98"/><circle cx="176" cy="16" r="2" fill="#00ff87" opacity="0.78"/><circle cx="208" cy="16" r="2" fill="#00ff87" opacity="0.71"/><circle cx="240" cy="16" r="2" fill="#00ff87" opacity="0.57"/><circle cx="16" cy="48" r="2" fill="#00ff87" opacity="0.64"/><circle cx="48" cy="48" r="2" fill="#00ff87" opacity="0.30"/><circle cx="80" cy="48" r="2" fill="#00ff87" opacity="0.55"/><circle cx="112" cy="48" r="2" fill="#00ff87" opacity="0.57"/><circle cx="144" cy="48" r="2" fill="#00ff87" opacity="0.93"/><circle cx="176" cy="48" r="2" fill="#00ff87" opacity="0.92"/><circle cx="208" cy="48" r="2" fill="#00ff87" opacity="0.78"/><circle cx="240" cy="48" r="2" fill="#00ff87" opacity="0.73"/><circle cx="16" cy="80" r="2" fill="#00ff87" opacity="0.53"/><circle cx="48" cy="80" r="2" fill="#00ff87" opacity="0.63"/><circle cx="80" cy="80" r="2" fill="#00ff87" opacity="0.48"/><circle cx="112" cy="80" r="2" fill="#00ff87" opacity="0.64"/><circle cx="144" cy="80" r="2" fill="#00ff87" opacity="0.80"/><circle cx="176" cy="80" r="2" fill="#00ff87" opacity="0.92"/><circle cx="208" cy="80" r="2" fill="#00ff87" opacity="0.74"/><circle cx="240" cy="80" r="2" fill="#00ff87" opacity="0.67"/><circle cx="16" cy="112" r="2" fill="#00ff87" opacity="0.71"/><circle cx="48" cy="112" r="2" fill="#00ff87" opacity="0.72"/><circle cx="80" cy="112" r="2" fill="#00ff87" opacity="0.73"/><circle cx="112" cy="112" r="2" fill="#00ff87" opacity="0.66"/><circle cx="144" cy="112" r="2" fill="#00ff87" opacity="0.88"/><circle cx="176" cy="112" r="2" fill="#00ff87" opacity="0.22"/><circle cx="208" cy="112" r="2" fill="#00ff87" opacity="0.92"/><circle cx="240" cy="112" r="2" fill="#00ff87" opacity="0.97"/><circle cx="16" cy="144" r="2" fill="#00ff87" opacity="0.61"/><circle cx="48" cy="144" r="2" fill="#00ff87" opacity="0.41"/><circle cx="80" cy="144" r="2" fill="#00ff87" opacity="0.99"/><circle cx="112" cy="144" r="2" fill="#00ff87" opacity="0.42"/><circle cx="144" cy="144" r="2" fill="#00ff87" opacity="0.89"/><circle cx="176" cy="144" r="2" fill="#00ff87" opacity="0.58"/><circle cx="208" cy="144" r="2" fill="#00ff87" opacity="0.30"/><circle cx="240" cy="144" r="2" fill="#00ff87" opacity="0.82"/><circle cx="16" cy="176" r="2" fill="#00ff87" opacity="0.84"/><circle cx="48" cy="176" r="2" fill="#00ff87" opacity="0.58"/><circle cx="80" cy="176" r="2" fill="#00ff87" opacity="0.30"/><circle cx="112" cy="176" r="2" fill="#00ff87" opacity="0.98"/><circle cx="144" cy="176" r="2" fill="#00ff87" opacity="1.00"/><circle cx="176" cy="176" r="2" fill="#00ff87" opacity="0.95"/><circle cx="208" cy="176" r="2" fill="#00ff87" opacity="0.77"/><circle cx="240" cy="176" r="2" fill="#00ff87" opacity="0.76"/><circle cx="16" cy="208" r="2" fill="#00ff87" opacity="0.54"/><circle cx="48" cy="208" r="2" fill="#00ff87" opacity="0.70"/><circle cx="80" cy="208" r="2" fill="#00ff87" opacity="0.22"/><circle cx="112" cy="208" r="2" fill="#00ff87" opacity="0.53"/><circle cx="144" cy="208" r="2" fill="#00ff87" opacity="0.71"/><circle cx="176" cy="208" r="2" fill="#00ff87" opacity="0.32"/><circle cx="208" cy="208" r="2" fill="#00ff87" opacity="0.50"/><circle cx="240" cy="208" r="2" fill="#00ff87" opacity="0.57"/><circle cx="16" cy="240" r="2" fill="#00ff87" opacity="0.79"/><circle cx="48" cy="240" r="2" fill="#00ff87" opacity="0.92"/><circle cx="80" cy="240" r="2" fill="#00ff87" opacity="0.49"/><circle cx="112" cy="240" r="2" fill="#00ff87" opacity="0.50"/><circle cx="144" cy="240" r="2" fill="#00ff87" opacity="0.67"/><circle cx="176" cy="240" r="2" fill="#00ff87" opacity="0.45"/><circle cx="208" cy="240" r="2" fill="#00ff87" opacity="0.67"/><circle cx="240" cy="240" r="2" fill="#00ff87" opacity="0.49"/></svg>
