<svg xmlns="http://www.w3.org/2000/svg" viewBox="0 0 256 256" width="256" height="256"><rect width="256" height="256" fill="#000000"/><line x1="45.5" y1="60.5" x2="75.5" y2="60.5" stroke="#00ff87" stroke-width="2" opacity="0.77"/><line x1="60.5" y1="45.5" x2="60.5" y2="75.5" stroke="#00ff87" stroke-width="2" opacity="0.77"/><line x1="90.5" y1="60.5" x2="120.5" y2="60.5" stroke="#00ff87" stroke-width="2" opacity="0.65"/><line x1="105.5" y1="45.5" x2="105.5" y2="75.5" stroke="#00ff87" stroke-width="2" opacity="0.65"/><line x1="135.5" y1="60.5" x2="165.5" y2="60.5" stroke="#00ff87" stroke-width="2" opacity="0.40"/><line x1="150.5" y1="45.5" x2="150.5" y2="75.5" stroke="#00ff87" stroke-width="2" opacity="0.40"/><line x1="180.5" y1="60.5" x2="210.5" y2="60.5" stroke="#00ff87" stroke-width="2" opacity="0.62"/><line x1="195.5" y1="45.5" x2="195.5" y2="75.5" stroke="#00ff87" stroke-width="2" opacity="0.62"/><line x1="45.5" y1="105.5" x2="75.5" y2="105.5" stroke="#00ff87" stroke-width="2" opacity="0.35"/><line x1="60.5" y1="90.5" x2="60.5" y2="120.5" stroke="#00ff87" stroke-width="2" opacity="0.35"/><line x1="90.5" y1="105.5" x2="120.5" y2="105.5" stroke="#00ff87" stroke-width="2" opacity="0.92"/><line x1="105.5" y1="90.5" x2="105.5" y2="120.5" stroke="#00ff87" stroke-width="2" opacity="0.92"/><line x1="135.5" y1="105.5" x2="165.5" y2="105.5" stroke="#00ff87" stroke-width="2" opacity="0.92"/><line x1="150.5" y1="90.5" x2="150.5" y2="120.5" stroke="#00ff87" stroke-width="2" opacity="0.92"/><line x1="180.5" y1="105.5" x2="210.5" y2="105.5" stroke="#00ff87" stroke-width="2" opacity="0.36"/><line x1="195.5" y1="90.5" x2="195.5" y2="120.5" stroke="#00ff87" stroke-width="2" opacity="0.36"/><line x1="45.5" y1="150.5" x2="75.5" y2="150.5" stroke="#00ff87" stroke-width="2" opacity="0.69"/><line x1="60.5" y1="135.5" x2="60.5" y2="165.5" stroke="#00ff87" stroke-width="2" opacity="0.69"/><line x1="90.5" y1="150.5" x2="120.5" y2="150.5" stroke="#00ff87" stroke-width="2" opacity="0.38"/><line x1="105.5" y1="135.5" x2="105.5" y2="165.5" stroke="#00ff87" stroke-width="2" opacity="0.38"/><line x1="135.5" y1="150.5" x2="165.5" y2="150.5" stroke="#00ff87" stroke-width="2" opacity="0.37"/><line x1="150.5" y1="135.5" x2="150.5" y2="165.5" stroke="#00ff87" stroke-width="2" opacity="0.37"/><line x1="180.5" y1="150.5" x2="210.5" y2="150.5" stroke="#00ff87" stroke-width="2" opacity="0.43"/><line x1="195.5" y1="135.5" x2="195.5" y2="165.5" stroke="#00ff87" stroke-width="2" opacity="0.43"/><line x1="45.5" y1="195.5" x2="75.5" y2="195.5" stroke="#00ff87" stroke-width="2" opacity="0.56"/><line x1="60.5" y1="180.5" x2="60.5" y2="210.5" stroke="#00ff87" stroke-width="2" opacity="0.56"/><line x1="90.5" y1="195.5" x2="120.5" y2="195.5" stroke="#00ff87" stroke-width="2" opacity="0.81"/><line x1="105.5" y1="180.5" x2="105.5" y2="210.5" stroke="#00ff87" stroke-width="2" opacity="0.81"/><line x1="135.5" y1="195.5" x2="165.5" y2="195.5" stroke="#00ff87" stroke-width="2" opacity="0.34"/><line x1="150.5" y1="180.5" x2="150.5" y2="210.5" stroke="#00ff87" stroke-width="2" opacity="0.34"/><line x1="180.5" y1="195.5" x2="210.5" y2="195.5" stroke="#00ff87" stroke-width="2" opacity="0.43"/><line x1="195.5" y1="180.5" x2="195.5" y2="210.5" stroke="#00ff87" stroke-width="2" opacity="0.43"/></svg>
