<svg xmlns="http://www.w3.org/2000/svg" viewBox="0 0 256 256" width="256" height="256"><rect width="256" height="256" fill="#000000"/><polyline points="0,60.00 4,65.60 8,71.08 12,76.32 16,81.21 20,85.63 24,89.51 28,92.74 32,95.26 36,97.01 40,97.97 44,98.10 48,97.40 52,95.90 56,93.61 60,90.60 64,86.92 68,82.66 72,77.91 76,72.77 80,67.35 84,61.77 88,56.16 92,50.63 96,45.30 100,40.29 104,35.71 108,31.65 112,28.21 116,25.46 120,23.46 124,22.25 128,21.85 132,22.29 136,23.54 140,25.59 144,28.38 148,31.85 152,35.94 156,40.55 160,45.58 164,50.92 168,56.46 172,62.08 176,67.65 180,73.05 184,78.17 188,82.90 192,87.13 196,90.78 200,93.75 204,96.00 208,97.46 212,98.11 216,97.94 220,96.94 224,95.14 228,92.58 232,89.31 236,85.41 240,80.96 244,76.05 248,70.79 252,65.30 256,59.70" fill="none" stroke="#00ff87" stroke-width="2" opacity="0.40"/><polyline points="0,158.37 4,161.00 8,163.32 12,165.29 16,166.91 20,168.15 24,169.01 28,169.46 32,169.52 36,169.17 40,168.42 44,167.28 48,165.76 52,163.88 56,161.65 60,159.10 64,156.25 68,153.13 72,149.78 76,146.23 80,142.51 84,138.67 88,134.73 92,130.75 96,126.76 100,122.81 104,118.92 108,115.15 112,111.53 116,108.10 120,104.90 124,101.94 128,99.28 132,96.92 136,94.91 140,93.25 144,91.97 148,91.07 152,90.57 156,90.47 160,90.78 164,91.48 168,92.58 172,94.05 176,95.90 180,98.09 184,100.61 188,103.42 192,106.51 196,109.84 200,113.37 204,117.07 208,120.90 212,124.83 216,128.81 220,132.80 224,136.76 228,140.65 232,144.44 236,148.08 240,151.53 244,154.76 248,157.74 252,160.44 256,162.83" fill="none" stroke="#00ff87" stroke-width="2" opacity="0.70"/></svg>
