<svg xmlns="http://www.w3.org/2000/svg" viewBox="0 0 256 256" width="256" height="256"><rect width="256" height="256" fill="#000000"/><g transform="rotate(45 128 128)"><line x1="-256" y1="0" x2="-256" y2="256" stroke="#00ff87" stroke-width="1.5" opacity="0.57"/><line x1="-238" y1="0" x2="-238" y2="256" stroke="#00ff87" stroke-width="1.5" opacity="0.49"/><line x1="-220" y1="0" x2="-220" y2="256" stroke="#00ff87" stroke-width="1.5" opacity="0.71"/><line x1="-202" y1="0" x2="-202" y2="256" stroke="#00ff87" stroke-width="1.5" opacity="0.69"/><line x1="-184" y1="0" x2="-184" y2="256" stroke="#00ff87" stroke-width="1.5" opacity="0.65"/><line x1="-166" y1="0" x2="-166" y2="256" stroke="#00ff87" stroke-width="1.5" opacity="0.29"/><line x1="-148" y1="0" x2="-148" y2="256" stroke="#00ff87" stroke-width="1.5" opacity="0.46"/><line x1="-130" y1="0" x2="-130" y2="256" stroke="#00ff87" stroke-width="1.5" opacity="0.28"/><line x1="-112" y1="0" x2="-112" y2="256" stroke="#00ff87" stroke-width="1.5" opacity="0.36"/><line x1="-94" y1="0" x2="-94" y2="256" stroke="#00ff87" stroke-width="1.5" opacity="0.46"/><line x1="-76" y1="0" x2="-76" y2="256" stroke="#00ff87" stroke-width="1.5" opacity="0.43"/><line x1="-58" y1="0" x2="-58" y2="256" stroke="#00ff87" stroke-width="1.5" opacity="0.47"/><line x1="-40" y1="0" x2="-40" y2="256" stroke="#00ff87" stroke-width="1.5" opacity="0.59"/><line x1="-22" y1="0" x2="-22" y2="256" stroke="#00ff87" stroke-width="1.5" opacity="0.60"/><line x1="-4" y1="0" x2="-4" y2="256" stroke="#00ff87" stroke-width="1.5" opacity="0.53"/><line x1="14" y1="0" x2="14" y2="256" stroke="#00ff87" stroke-width="1.5" opacity="0.39"/><line x1="32" y1="0" x2="32" y2="256" stroke="#00ff87" stroke-width="1.5" opacity="0.70"/><line x1="50" y1="0" x2="50" y2="256" stroke="#00ff87" stroke-width="1.5" opacity="0.71"/><line x1="68" y1="0" x2="68" y2="256" stroke="#00ff87" stroke-width="1.5" opacity="0.49"/><line x1="86" y1="0" x2="86" y2="256" stroke="#00ff87" stroke-width="1.5" opacity="0.85"/><line x1="104" y1="0" x2="104" y2="256" stroke="#00ff87" stroke-width="1.5" opacity="0.57"/><line x1="122" y1="0" x2="122" y2="256" stroke="#00ff87" stroke-width="1.5" opacity="0.76"/><line x1="140" y1="0" x2="140" y2="256" stroke="#00ff87" stroke-width="1.5" opacity="0.60"/><line x1="158" y1="0" x2="158" y2="256" stroke="#00ff87" stroke-width="1.5" opacity="0.59"/><line x1="176" y1="0" x2="176" y2="256" stroke="#00ff87" stroke-width="1.5" opacity="0.25"/><line x1="194" y1="0" x2="194" y2="256" stroke="#00ff87" stroke-width="1.5" opacity="0.43"/><line x1="212" y1="0" x2="212" y2="256" stroke="#00ff87" stroke-width="1.5" opacity="0.57"/><line x1="230" y1="0" x2="230" y2="256" stroke="#00ff87" stroke-width="1.5" opacity="0.46"/><line x1="248" y1="0" x2="248" y2="256" stroke="#00ff87" stroke-width="1.5" opacity="0.41"/><line x1="266" y1="0" x2="266" y2="256" stroke="#00ff87" stroke-width="1.5" opacity="0.55"/><line x1="284" y1="0" x2="284" y2="256" stroke="#00ff87" stroke-width="1.5" opacity="0.37"/><line x1="302" y1="0" x2="302" y2="256" stroke="#00ff87" stroke-width="1.5" opacity="0.70"/><line x1="320" y1="0" x2="320" y2="256" stroke="#00ff87" stroke-width="1.5" opacity="0.67"/><line x1="338" y1="0" x2="338" y2="256" stroke="#00ff87" stroke-width="1.5" opacity="0.29"/><line x1="356" y1="0" x2="356" y2="256" stroke="#00ff87" stroke-width="1.5" opacity="0.60"/><line x1="374" y1="0" x2="374" y2="256" stroke="#00ff87" stroke-width="1.5" opacity="0.68"/><line x1="392" y1="0" x2="392" y2="256" stroke="#00ff87" stroke-width="1.5" opacity="0.32"/><line x1="410" y1="0" x2="410" y2="256" stroke="#00ff87" stroke-width="1.5" opacity="0.72"/><line x1="428" y1="0" x2="428" y2="256" stroke="#00ff87" stroke-width="1.5" opacity="0.72"/><line x1="446" y1="0" x2="446" y2="256" stroke="#00ff87" stroke-width="1.5" opacity="0.72"/><line x1="464" y1="0" x2="464" y2="256" stroke="#00ff87" stroke-width="1.5" opacity="0.34"/><line x1="482" y1="0" x2="482" y2="256" stroke="#00ff87" stroke-width="1.5" opacity="0.49"/><line x1="500" y1="0" x2="500" y2="256" stroke="#00ff87" stroke-width="1.5" opacity="0.35"/></g></svg>
