<svg xmlns="http://www.w3.org/2000/svg" viewBox="0 0 256 256" width="256" height="256"><rect width="256" height="256" fill="#000000"/><circle cx="28" cy="28" r="2" fill="#00ff87" opacity="0.53"/><circle cx="68" cy="28" r="2" fill="#00ff87" opacity="0.73"/><circle cx="108" cy="28" r="2" fill="#00ff87" opacity="0.82"/><circle cx="148" cy="28" r="2" fill="#00ff87" opacity="0.40"/><circle cx="188" cy="28" r="2" fill="#00ff87" opacity="0.22"/><circle cx="228" cy="28" r="2" fill="#00ff87" opacity="0.80"/><circle cx="28" cy="68" r="2" fill="#00ff87" opacity="0.46"/><circle cx="68" cy="68" r="2" fill="#00ff87" opacity="0.45"/><circle cx="108" cy="68" r="2" fill="#00ff87" opacity="0.20"/><circle cx="148" cy="68" r="2" fill="#00ff87" opacity="0.63"/><circle cx="188" cy="68" r="2" fill="#00ff87" opacity="0.70"/><circle cx="228" cy="68" r="2" fill="#00ff87" opacity="0.87"/><circle cx="28" cy="108" r="2" fill="#00ff87" opacity="0.91"/><circle cx="68" cy="108" r="2" fill="#00ff87" opacity="0.70"/><circle cx="108" cy="108" r="2" fill="#00ff87" opacity="0.79"/><circle cx="148" cy="108" r="2" fill="#00ff87" opacity="0.38"/><circle cx="188" cy="108" r="2" fill="#00ff87" opacity="0.25"/><circle cx="228" cy="108" r="2" fill="#00ff87" opacity="0.98"/><circle cx="28" cy="148" r="2" fill="#00ff87" opacity="0.59"/><circle cx="68" cy="148" r="2" fill="#00ff87" opacity="0.89"/><circle cx="108" cy="148" r="2" fill="#00ff87" opacity="0.87"/><circle cx="148" cy="148" r="2" fill="#00ff87" opacity="0.50"/><circle cx="188" cy="148" r="2" fill="#00ff87" opacity="0.26"/><circle cx="228" cy="148" r="2" fill="#00ff87" opacity="0.59"/><circle cx="28" cy="188" r="2" fill="#00ff87" opacity="0.49"/><circle cx="68" cy="188" r="2" fill="#00ff87" opacity="0.65"/><circle cx="108" cy="188" r="2" fill="#00ff87" opacity="0.83"/><circle cx="148" cy="188" r="2" fill="#00ff87" opacity="0.25"/><circle cx="188" cy="188" r="2" fill="#00ff87" opacity="0.26"/><circle cx="228" cy="188" r="2" fill="#00ff87" opacity="0.40"/><circle cx="28" cy="228" r="2" fill="#00ff87" opacity="0.65"/><circle cx="68" cy="228" r="2" fill="#00ff87" opacity="0.72"/><circle cx="108" cy="228" r="2" fill="#00ff87" opacity="0.55"/><circle cx="148" cy="228" r="2" fill="#00ff87" opacity="0.58"/><circle cx="188" cy="228" r="2" fill="#00ff87" opacity="0.41"/><circle cx="228" cy="228" r="2" fill="#00ff87" opacity="0.57"/></svg>
