<svg xmlns="http://www.w3.org/2000/svg" viewBox="0 0 256 256" width="256" height="256"><rect width="256" height="256" fill="#000000"/><polyline points="0,60.00 4,64.13 8,68.21 12,72.23 16,76.13 20,79.88 24,83.44 28,86.80 32,89.90 36,92.73 40,95.26 44,97.46 48,99.32 52,100.81 56,101.93 60,102.66 64,103.00 68,102.94 72,102.49 76,101.64 80,100.41 84,98.81 88,96.85 92,94.55 96,91.93 100,89.02 104,85.84 108,82.42 112,78.80 116,75.00 120,71.07 124,67.03 128,62.92 132,58.79 136,54.68 140,50.61 144,46.62 148,42.76 152,39.06 156,35.55 160,32.27 164,29.24 168,26.50 172,24.07 176,21.96 180,20.21 184,18.82 188,17.82 192,17.20 196,16.98 200,17.15 204,17.72 208,18.68 212,20.02 216,21.73 220,23.79 224,26.18 228,28.89 232,31.88 236,35.13 240,38.61 244,42.29 248,46.14 252,50.10 256,54.17" fill="none" stroke="#00ff87" stroke-width="2" opacity="0.40"/><polyline points="0,162.31 4,166.94 8,170.60 12,173.21 16,174.70 20,175.02 24,174.16 28,172.16 32,169.07 36,164.95 40,159.93 44,154.13 48,147.70 52,140.81 56,133.63 60,126.37 64,119.19 68,112.30 72,105.87 76,100.07 80,95.05 84,90.93 88,87.84 92,85.84 96,84.98 100,85.30 104,86.79 108,89.40 112,93.06 116,97.69 120,103.15 124,109.32 128,116.02 132,123.09 136,130.34 140,137.57 144,144.62 148,151.28 152,157.38 156,162.78 160,167.32 164,170.89 168,173.40 172,174.77 176,174.99 180,174.03 184,171.92 188,168.73 192,164.53 196,159.42 200,153.56 204,147.08 208,140.15 212,132.96 216,125.70 220,118.54 224,111.69 228,105.31 232,99.57 236,94.63 240,90.60 244,87.60 248,85.71 252,84.96 256,85.39" fill="none" stroke="#00ff87" stroke-width="2" opacity="0.70"/></svg>
