<svg xmlns="http://www.w3.org/2000/svg" viewBox="0 0 256 256" width="256" height="256"><rect width="256" height="256" fill="#000000"/><line x1="44.0" y1="56.0" x2="68.0" y2="56.0" stroke="#00ff87" stroke-width="2" opacity="0.66"/><line x1="56.0" y1="44.0" x2="56.0" y2="68.0" stroke="#00ff87" stroke-width="2" opacity="0.66"/><line x1="80.0" y1="56.0" x2="104.0" y2="56.0" stroke="#00ff87" stroke-width="2" opacity="0.51"/><line x1="92.0" y1="44.0" x2="92.0" y2="68.0" stroke="#00ff87" stroke-width="2" opacity="0.51"/><line x1="116.0" y1="56.0" x2="140.0" y2="56.0" stroke="#00ff87" stroke-width="2" opacity="0.32"/><line x1="128.0" y1="44.0" x2="128.0" y2="68.0" stroke="#00ff87" stroke-width="2" opacity="0.32"/><line x1="152.0" y1="56.0" x2="176.0" y2="56.0" stroke="#00ff87" stroke-width="2" opacity="0.66"/><line x1="164.0" y1="44.0" x2="164.0" y2="68.0" stroke="#00ff87" stroke-width="2" opacity="0.66"/><line x1="188.0" y1="56.0" x2="212.0" y2="56.0" stroke="#00ff87" stroke-width="2" opacity="0.95"/><line x1="200.0" y1="44.0" x2="200.0" y2="68.0" stroke="#00ff87" stroke-width="2" opacity="0.95"/><line x1="44.0" y1="92.0" x2="68.0" y2="92.0" stroke="#00ff87" stroke-width="2" opacity="0.55"/><line x1="56.0" y1="80.0" x2="56.0" y2="104.0" stroke="#00ff87" stroke-width="2" opacity="0.55"/><line x1="80.0" y1="92.0" x2="104.0" y2="92.0" stroke="#00ff87" stroke-width="2" opacity="0.95"/><line x1="92.0" y1="80.0" x2="92.0" y2="104.0" stroke="#00ff87" stroke-width="2" opacity="0.95"/><line x1="116.0" y1="92.0" x2="140.0" y2="92.0" stroke="#00ff87" stroke-width="2" opacity="0.32"/><line x1="128.0" y1="80.0" x2="128.0" y2="104.0" stroke="#00ff87" stroke-width="2" opacity="0.32"/><line x1="152.0" y1="92.0" x2="176.0" y2="92.0" stroke="#00ff87" stroke-width="2" opacity="0.98"/><line x1="164.0" y1="80.0" x2="164.0" y2="104.0" stroke="#00ff87" stroke-width="2" opacity="0.98"/><line x1="188.0" y1="92.0" x2="212.0" y2="92.0" stroke="#00ff87" stroke-width="2" opacity="0.78"/><line x1="200.0" y1="80.0" x2="200.0" y2="104.0" stroke="#00ff87" stroke-width="2" opacity="0.78"/><line x1="44.0" y1="128.0" x2="68.0" y2="128.0" stroke="#00ff87" stroke-width="2" opacity="0.91"/><line x1="56.0" y1="116.0" x2="56.0" y2="140.0" stroke="#00ff87" stroke-width="2" opacity="0.91"/><line x1="80.0" y1="128.0" x2="104.0" y2="128.0" stroke="#00ff87" stroke-width="2" opacity="0.87"/><line x1="92.0" y1="116.0" x2="92.0" y2="140.0" stroke="#00ff87" stroke-width="2" opacity="0.87"/><line x1="116.0" y1="128.0" x2="140.0" y2="128.0" stroke="#00ff87" stroke-width="2" opacity="0.66"/><line x1="128.0" y1="116.0" x2="128.0" y2="140.0" stroke="#00ff87" stroke-width="2" opacity="0.66"/><line x1="152.0" y1="128.0" x2="176.0" y2="128.0" stroke="#00ff87" stroke-width="2" opacity="0.45"/><line x1="164.0" y1="116.0" x2="164.0" y2="140.0" stroke="#00ff87" stroke-width="2" opacity="0.45"/><line x1="188.0" y1="128.0" x2="212.0" y2="128.0" stroke="#00ff87" stroke-width="2" opacity="0.71"/><line x1="200.0" y1="116.0" x2="200.0" y2="140.0" stroke="#00ff87" stroke-width="2" opacity="0.71"/><line x1="44.0" y1="164.0" x2="68.0" y2="164.0" stroke="#00ff87" stroke-width="2" opacity="0.66"/><line x1="56.0" y1="152.0" x2="56.0" y2="176.0" stroke="#00ff87" stroke-width="2" opacity="0.66"/><line x1="80.0" y1="164.0" x2="104.0" y2="164.0" stroke="#00ff87" stroke-width="2" opacity="0.83"/><line x1="92.0" y1="152.0" x2="92.0" y2="176.0" stroke="#00ff87" stroke-width="2" opacity="0.83"/><line x1="116.0" y1="164.0" x2="140.0" y2="164.0" stroke="#00ff87" stroke-width="2" opacity="0.98"/><line x1="128.0" y1="152.0" x2="128.0" y2="176.0" stroke="#00ff87" stroke-width="2" opacity="0.98"/><line x1="152.0" y1="164.0" x2="176.0" y2="164.0" stroke="#00ff87" stroke-width="2" opacity="0.92"/><line x1="164.0" y1="152.0" x2="164.0" y2="176.0" stroke="#00ff87" stroke-width="2" opacity="0.92"/><line x1="188.0" y1="164.0" x2="212.0" y2="164.0" stroke="#00ff87" stroke-width="2" opacity="0.77"/><line x1="200.0" y1="152.0" x2="200.0" y2="176.0" stroke="#00ff87" stroke-width="2" opacity="0.77"/><line x1="44.0" y1="200.0" x2="68.0" y2="200.0" stroke="#00ff87" stroke-width="2" opacity="0.33"/><line x1="56.0" y1="188.0" x2="56.0" y2="212.0" stroke="#00ff87" stroke-width="2" opacity="0.33"/><line x1="80.0" y1="200.0" x2="104.0" y2="200.0" stroke="#00ff87" stroke-width="2" opacity="0.63"/><line x1="92.0" y1="188.0" x2="92.0" y2="212.0" stroke="#00ff87" stroke-width="2" opacity="0.63"/><line x1="116.0" y1="200.0" x2="140.0" y2="200.0" stroke="#00ff87" stroke-width="2" opacity="0.67"/><line x1="128.0" y1="188.0" x2="128.0" y2="212.0" stroke="#00ff87" stroke-width="2" opacity="0.67"/><line x1="152.0" y1="200.0" x2="176.0" y2="200.0" stroke="#00ff87" stroke-width="2" opacity="0.54"/><line x1="164.0" y1="188.0" x2="164.0" y2="212.0" stroke="#00ff87" stroke-width="2" opacity="0.54"/><line x1="188.0" y1="200.0" x2="212.0" y2="200.0" stroke="#00ff87" stroke-width="2" opacity="0.38"/><line x1="200.0" y1="188.0" x2="200.0" y2="212.0" stroke="#00ff87" stroke-width="2" opacity="0.38"/></svg>
