<svg xmlns="http://www.w3.org/2000/svg" viewBox="0 0 256 256" width="256" height="256"><rect width="256" height="256" fill="#000000"/><g transform="rotate(135 128 128)"><line x1="-256" y1="0" x2="-256" y2="256" stroke="#00ff87" stroke-width="1.5" opacity="0.79"/><line x1="-246" y1="0" x2="-246" y2="256" stroke="#00ff87" stroke-width="1.5" opacity="0.62"/><line x1="-236" y1="0" x2="-236" y2="256" stroke="#00ff87" stroke-width="1.5" opacity="0.60"/><line x1="-226" y1="0" x2="-226" y2="256" stroke="#00ff87" stroke-width="1.5" opacity="0.63"/><line x1="-216" y1="0" x2="-216" y2="256" stroke="#00ff87" stroke-width="1.5" opacity="0.77"/><line x1="-206" y1="0" x2="-206" y2="256" stroke="#00ff87" stroke-width="1.5" opacity="0.73"/><line x1="-196" y1="0" x2="-196" y2="256" stroke="#00ff87" stroke-width="1.5" opacity="0.83"/><line x1="-186" y1="0" x2="-186" y2="256" stroke="#00ff87" stroke-width="1.5" opacity="0.79"/><line x1="-176" y1="0" x2="-176" y2="256" stroke="#00ff87" stroke-width="1.5" opacity="0.56"/><line x1="-166" y1="0" x2="-166" y2="256" stroke="#00ff87" stroke-width="1.5" opacity="0.70"/><line x1="-156" y1="0" x2="-156" y2="256" stroke="#00ff87" stroke-width="1.5" opacity="0.71"/><line x1="-146" y1="0" x2="-146" y2="256" stroke="#00ff87" stroke-width="1.5" opacity="0.35"/><line x1="-136" y1="0" x2="-136" y2="256" stroke="#00ff87" stroke-width="1.5" opacity="0.28"/><line x1="-126" y1="0" x2="-126" y2="256" stroke="#00ff87" stroke-width="1.5" opacity="0.60"/><line x1="-116" y1="0" x2="-116" y2="256" stroke="#00ff87" stroke-width="1.5" opacity="0.77"/><line x1="-106" y1="0" x2="-106" y2="256" stroke="#00ff87" stroke-width="1.5" opacity="0.77"/><line x1="-96" y1="0" x2="-96" y2="256" stroke="#00ff87" stroke-width="1.5" opacity="0.29"/><line x1="-86" y1="0" x2="-86" y2="256" stroke="#00ff87" stroke-width="1.5" opacity="0.39"/><line x1="-76" y1="0" x2="-76" y2="256" stroke="#00ff87" stroke-width="1.5" opacity="0.75"/><line x1="-66" y1="0" x2="-66" y2="256" stroke="#00ff87" stroke-width="1.5" opacity="0.73"/><line x1="-56" y1="0" x2="-56" y2="256" stroke="#00ff87" stroke-width="1.5" opacity="0.75"/><line x1="-46" y1="0" x2="-46" y2="256" stroke="#00ff87" stroke-width="1.5" opacity="0.28"/><line x1="-36" y1="0" x2="-36" y2="256" stroke="#00ff87" stroke-width="1.5" opacity="0.62"/><line x1="-26" y1="0" x2="-26" y2="256" stroke="#00ff87" stroke-width="1.5" opacity="0.61"/><line x1="-16" y1="0" x2="-16" y2="256" stroke="#00ff87" stroke-width="1.5" opacity="0.64"/><line x1="-6" y1="0" x2="-6" y2="256" stroke="#00ff87" stroke-width="1.5" opacity="0.78"/><line x1="4" y1="0" x2="4" y2="256" stroke="#00ff87" stroke-width="1.5" opacity="0.83"/><line x1="14" y1="0" x2="14" y2="256" stroke="#00ff87" stroke-width="1.5" opacity="0.72"/><line x1="24" y1="0" x2="24" y2="256" stroke="#00ff87" stroke-width="1.5" opacity="0.49"/><line x1="34" y1="0" x2="34" y2="256" stroke="#00ff87" stroke-width="1.5" opacity="0.31"/><line x1="44" y1="0" x2="44" y2="256" stroke="#00ff87" stroke-width="1.5" opacity="0.79"/><line x1="54" y1="0" x2="54" y2="256" stroke="#00ff87" stroke-width="1.5" opacity="0.35"/><line x1="64" y1="0" x2="64" y2="256" stroke="#00ff87" stroke-width="1.5" opacity="0.49"/><line x1="74" y1="0" x2="74" y2="256" stroke="#00ff87" stroke-width="1.5" opacity="0.61"/><line x1="84" y1="0" x2="84" y2="256" stroke="#00ff87" stroke-width="1.5" opacity="0.26"/><line x1="94" y1="0" x2="94" y2="256" stroke="#00ff87" stroke-width="1.5" opacity="0.68"/><line x1="104" y1="0" x2="104" y2="256" stroke="#00ff87" stroke-width="1.5" opacity="0.60"/><line x1="114" y1="0" x2="114" y2="256" stroke="#00ff87" stroke-width="1.5" opacity="0.34"/><line x1="124" y1="0" x2="124" y2="256" stroke="#00ff87" stroke-width="1.5" opacity="0.77"/><line x1="134" y1="0" x2="134" y2="256" stroke="#00ff87" stroke-width="1.5" opacity="0.70"/><line x1="144" y1="0" x2="144" y2="256" stroke="#00ff87" stroke-width="1.5" opacity="0.42"/><line x1="154" y1="0" x2="154" y2="256" stroke="#00ff87" stroke-width="1.5" opacity="0.65"/><line x1="164" y1="0" x2="164" y2="256" stroke="#00ff87" stroke-width="1.5" opacity="0.52"/><line x1="174" y1="0" x2="174" y2="256" stroke="#00ff87" stroke-width="1.5" opacity="0.68"/><line x1="184" y1="0" x2="184" y2="256" stroke="#00ff87" stroke-width="1.5" opacity="0.40"/><line x1="194" y1="0" x2="194" y2="256" stroke="#00ff87" stroke-width="1.5" opacity="0.72"/><line x1="204" y1="0" x2="204" y2="256" stroke="#00ff87" stroke-width="1.5" opacity="0.30"/><line x1="214" y1="0" x2="214" y2="256" stroke="#00ff87" stroke-width="1.5" opacity="0.29"/><line x1="224" y1="0" x2="224" y2="256" stroke="#00ff87" stroke-width="1.5" opacity="0.35"/><line x1="234" y1="0" x2="234" y2="256" stroke="#00ff87" stroke-width="1.5" opacity="0.46"/><line x1="244" y1="0" x2="244" y2="256" stroke="#00ff87" stroke-width="1.5" opacity="0.83"/><line x1="254" y1="0" x2="254" y2="256" stroke="#00ff87" stroke-width="1.5" opacity="0.52"/><line x1="264" y1="0" x2="264" y2="256" stroke="#00ff87" stroke-width="1.5" opacity="0.46"/><line x1="274" y1="0" x2="274" y2="256" stroke="#00ff87" stroke-width="1.5" opacity="0.52"/><line x1="284" y1="0" x2="284" y2="256" stroke="#00ff87" stroke-width="1.5" opacity="0.63"/><line x1="294" y1="0" x2="294" y2="256" stroke="#00ff87" stroke-width="1.5" opacity="0.71"/><line x1="304" y1="0" x2="304" y2="256" stroke="#00ff87" stroke-width="1.5" opacity="0.25"/><line x1="314" y1="0" x2="314" y2="256" stroke="#00ff87" stroke-width="1.5" opacity="0.53"/><line x1="324" y1="0" x2="324" y2="256" stroke="#00ff87" stroke-width="1.5" opacity="0.26"/><line x1="334" y1="0" x2="334" y2="256" stroke="#00ff87" stroke-width="1.5" opacity="0.78"/><line x1="344" y1="0" x2="344" y2="256" stroke="#00ff87" stroke-width="1.5" opacity="0.85"/><line x1="354" y1="0" x2="354" y2="256" stroke="#00ff87" stroke-width="1.5" opacity="0.27"/><line x1="364" y1="0" x2="364" y2="256" stroke="#00ff87" stroke-width="1.5" opacity="0.36"/><line x1="374" y1="0" x2="374" y2="256" stroke="#00ff87" stroke-width="1.5" opacity="0.53"/><line x1="384" y1="0" x2="384" y2="256" stroke="#00ff87" stroke-width="1.5" opacity="0.76"/><line x1="394" y1="0" x2="394" y2="256" stroke="#00ff87" stroke-width="1.5" opacity="0.61"/><line x1="404" y1="0" x2="404" y2="256" stroke="#00ff87" stroke-width="1.5" opacity="0.77"/><line x1="414" y1="0" x2="414" y2="256" stroke="#00ff87" stroke-width="1.5" opacity="0.37"/><line x1="424" y1="0" x2="424" y2="256" stroke="#00ff87" stroke-width="1.5" opacity="0.28"/><line x1="434" y1="0" x2="434" y2="256" stroke="#00ff87" stroke-width="1.5" opacity="0.29"/><line x1="444" y1="0" x2="444" y2="256" stroke="#00ff87" stroke-width="1.5" opacity="0.38"/><line x1="454" y1="0" x2="454" y2="256" stroke="#00ff87" stroke-width="1.5" opacity="0.37"/><line x1="464" y1="0" x2="464" y2="256" stroke="#00ff87" stroke-width="1.5" opacity="0.52"/><line x1="474" y1="0" x2="474" y2="256" stroke="#00ff87" stroke-width="1.5" opacity="0.43"/><line x1="484" y1="0" x2="484" y2="256" stroke="#00ff87" stroke-width="1.5" opacity="0.27"/><line x1="494" y1="0" x2="494" y2="256" stroke="#00ff87" stroke-width="1.5" opacity="0.69"/><line x1="504" y1="0" x2="504" y2="256" stroke="#00ff87" stroke-width="1.5" opacity="0.72"/></g></svg>
