<svg xmlns="http://www.w3.org/2000/svg" viewBox="0 0 256 256" width="256" height="256"><rect width="256" height="256" fill="#000000"/><polyline points="0,60.00 4,71.32 8,82.04 12,91.59 16,99.47 20,105.27 24,108.68 28,109.51 32,107.73 36,103.42 40,96.82 44,88.27 48,78.23 52,67.22 56,55.84 60,44.67 64,34.31 68,25.31 72,18.15 76,13.19 80,10.72 84,10.84 88,13.56 92,18.74 96,26.10 100,35.25 104,45.71 108,56.92 112,68.30 116,79.24 120,89.16 124,97.54 128,103.93 132,108.01 136,109.54 140,108.46 144,104.82 148,98.81 152,90.74 156,81.05 160,70.25 164,58.91 168,47.62 172,36.99 176,27.58 180,19.88 184,14.30 188,11.13 192,10.55 196,12.58 200,17.12 204,23.92 208,32.63 212,42.79 216,53.86 220,65.25 224,76.36 228,86.61 232,95.46 236,102.43 240,107.15 244,109.39 248,109.01 252,106.04 256,100.64" fill="none" stroke="#00ff87" stroke-width="2" opacity="0.40"/><polyline points="0,126.85 4,129.26 8,131.44 12,133.39 16,135.07 20,136.50 24,137.64 28,138.51 32,139.08 36,139.37 40,139.36 44,139.05 48,138.46 52,137.57 56,136.41 60,134.97 64,133.26 68,131.30 72,129.10 76,126.68 80,124.04 84,121.21 88,118.21 92,115.06 96,111.77 100,108.37 104,104.88 108,101.33 112,97.73 116,94.12 120,90.51 124,86.93 128,83.41 132,79.96 136,76.61 140,73.39 144,70.30 148,67.38 152,64.65 156,62.11 160,59.79 164,57.71 168,55.87 172,54.30 176,52.99 180,51.96 184,51.21 188,50.76 192,50.60 196,50.73 200,51.16 204,51.88 208,52.88 212,54.16 216,55.72 220,57.53 224,59.59 228,61.89 232,64.40 236,67.12 240,70.02 244,73.09 248,76.31 252,79.64 256,83.08" fill="none" stroke="#00ff87" stroke-width="2" opacity="0.55"/><polyline points="0,172.87 4,172.17 8,170.45 12,167.76 16,164.18 20,159.77 24,154.65 28,148.94 32,142.77 36,136.30 40,129.68 44,123.07 48,116.62 52,110.50 56,104.84 60,99.78 64,95.45 68,91.94 72,89.34 76,87.72 80,87.11 84,87.53 88,88.97 92,91.38 96,94.73 100,98.91 104,103.84 108,109.40 112,115.45 116,121.85 120,128.44 124,135.08 128,141.59 132,147.82 136,153.62 140,158.86 144,163.41 148,167.16 152,170.02 156,171.92 160,172.82 164,172.69 168,171.54 172,169.39 176,166.31 180,162.35 184,157.61 188,152.22 192,146.30 196,139.98 200,133.42 204,126.79 208,120.23 212,113.90 216,107.96 220,102.55 224,97.79 228,93.81 232,90.69 236,88.51 240,87.33 244,87.17 248,88.03 252,89.90 256,92.73" fill="none" stroke="#00ff87" stroke-width="2" opacity="0.70"/><polyline points="0,192.73 4,188.48 8,183.82 12,178.83 16,173.60 20,168.21 24,162.77 28,157.37 32,152.11 36,147.07 40,142.34 44,138.01 48,134.16 52,130.85 56,128.14 60,126.07 64,124.69 68,124.02 72,124.07 76,124.83 80,126.31 84,128.46 88,131.25 92,134.64 96,138.56 100,142.95 104,147.72 108,152.79 112,158.08 116,163.50 120,168.93 124,174.30 128,179.51 132,184.46 136,189.07 140,193.25 144,196.94 148,200.07 152,202.59 156,204.44 160,205.60 164,206.04 168,205.77 172,204.78 176,203.09 180,200.73 184,197.74 188,194.18 192,190.11 196,185.59 200,180.71 204,175.56 208,170.22 212,164.79 216,159.36 220,154.04 224,148.90 228,144.05 232,139.56 236,135.53 240,132.01 244,129.07 248,126.76 252,125.12 256,124.19" fill="none" stroke="#00ff87" stroke-width="2" opacity="0.85"/></svg>
