<svg xmlns="http://www.w3.org/2000/svg" viewBox="0 0 256 256" width="256" height="256"><rect width="256" height="256" fill="#000000"/><circle cx="28" cy="28" r="3" fill="#00ff87" opacity="0.27"/><circle cx="68" cy="28" r="3" fill="#00ff87" opacity="0.36"/><circle cx="108" cy="28" r="3" fill="#00ff87" opacity="0.43"/><circle cx="148" cy="28" r="3" fill="#00ff87" opacity="0.36"/><circle cx="188" cy="28" r="3" fill="#00ff87" opacity="0.92"/><circle cx="228" cy="28" r="3" fill="#00ff87" opacity="0.23"/><circle cx="28" cy="68" r="3" fill="#00ff87" opacity="0.47"/><circle cx="68" cy="68" r="3" fill="#00ff87" opacity="0.34"/><circle cx="108" cy="68" r="3" fill="#00ff87" opacity="0.51"/><circle cx="148" cy="68" r="3" fill="#00ff87" opacity="0.42"/><circle cx="188" cy="68" r="3" fill="#00ff87" opacity="0.60"/><circle cx="228" cy="68" r="3" fill="#00ff87" opacity="0.38"/><circle cx="28" cy="108" r="3" fill="#00ff87" opacity="0.50"/><circle cx="68" cy="108" r="3" fill="#00ff87" opacity="0.74"/><circle cx="108" cy="108" r="3" fill="#00ff87" opacity="0.66"/><circle cx="148" cy="108" r="3" fill="#00ff87" opacity="0.23"/><circle cx="188" cy="108" r="3" fill="#00ff87" opacity="0.91"/><circle cx="228" cy="108" r="3" fill="#00ff87" opacity="0.89"/><circle cx="28" cy="148" r="3" fill="#00ff87" opacity="0.40"/><circle cx="68" cy="148" r="3" fill="#00ff87" opacity="0.35"/><circle cx="108" cy="148" r="3" fill="#00ff87" opacity="0.57"/><circle cx="148" cy="148" r="3" fill="#00ff87" opacity="0.42"/><circle cx="188" cy="148" r="3" fill="#00ff87" opacity="0.39"/><circle cx="228" cy="148" r="3" fill="#00ff87" opacity="0.86"/><circle cx="28" cy="188" r="3" fill="#00ff87" opacity="0.41"/><circle cx="68" cy="188" r="3" fill="#00ff87" opacity="0.69"/><circle cx="108" cy="188" r="3" fill="#00ff87" opacity="0.30"/><circle cx="148" cy="188" r="3" fill="#00ff87" opacity="0.48"/><circle cx="188" cy="188" r="3" fill="#00ff87" opacity="0.79"/><circle cx="228" cy="188" r="3" fill="#00ff87" opacity="0.73"/><circle cx="28" cy="228" r="3" fill="#00ff87" opacity="0.68"/><circle cx="68" cy="228" r="3" fill="#00ff87" opacity="0.36"/><circle cx="108" cy="228" r="3" fill="#00ff87" opacity="0.87"/><circle cx="148" cy="228" r="3" fill="#00ff87" opacity="0.77"/><circle cx="188" cy="228" r="3" fill="#00ff87" opacity="0.87"/><circle cx="228" cy="228" r="3" fill="#00ff87" opacity="0.85"/></svg>
