<svg xmlns="http://www.w3.org/2000/svg" viewBox="0 0 256 256" width="256" height="256"><rect width="256" height="256" fill="#000000"/><polyline points="0,60.00 4,62.62 8,65.23 12,67.79 16,70.30 20,72.74 24,75.08 28,77.32 32,79.43 36,81.41 40,83.22 44,84.88 48,86.35 52,87.63 56,88.72 60,89.60 64,90.27 68,90.71 72,90.94 76,90.95 80,90.73 84,90.30 88,89.64 92,88.78 96,87.70 100,86.43 104,84.97 108,83.33 112,81.52 116,79.55 120,77.45 124,75.22 128,72.88 132,70.45 136,67.94 140,65.38 144,62.78 148,60.15 152,57.53 156,54.93 160,52.36 164,49.84 168,47.40 172,45.05 176,42.81 180,40.69 184,38.71 188,36.88 192,35.22 196,33.73 200,32.44 204,31.34 208,30.45 212,29.77 216,29.31 220,29.06 224,29.04 228,29.25 232,29.67 236,30.31 240,31.17 244,32.23 248,33.49 252,34.94 256,36.57" fill="none" stroke="#00ff87" stroke-width="2" opacity="0.40"/><polyline points="0,125.54 4,127.55 8,129.27 12,130.68 16,131.77 20,132.51 24,132.91 28,132.95 32,132.64 36,131.97 40,130.96 44,129.62 48,127.97 52,126.03 56,123.83 60,121.39 64,118.75 68,115.96 72,113.03 76,110.02 80,106.96 84,103.90 88,100.88 92,97.93 96,95.11 100,92.44 104,89.96 108,87.71 112,85.72 116,84.01 120,82.61 124,81.53 128,80.80 132,80.41 136,80.39 140,80.71 144,81.40 148,82.42 152,83.77 156,85.43 160,87.38 164,89.60 168,92.04 172,94.68 176,97.49 180,100.41 184,103.43 188,106.49 192,109.55 196,112.57 200,115.51 204,118.33 208,120.99 212,123.46 216,125.70 220,127.68 224,129.38 228,130.77 232,131.84 236,132.56 240,132.93 244,132.94 248,132.60 252,131.91 256,130.87" fill="none" stroke="#00ff87" stroke-width="2" opacity="0.60"/><polyline points="0,181.06 4,180.46 8,178.97 12,176.65 16,173.56 20,169.81 24,165.52 28,160.83 32,155.89 36,150.88 40,145.94 44,141.24 48,136.94 52,133.18 56,130.08 60,127.73 64,126.23 68,125.61 72,125.90 76,127.09 80,129.13 84,131.97 88,135.51 92,139.63 96,144.20 100,149.06 104,154.07 108,159.05 112,163.85 116,168.30 120,172.26 124,175.61 128,178.22 132,180.02 136,180.95 140,180.97 144,180.09 148,178.33 152,175.75 156,172.45 160,168.51 164,164.08 168,159.30 172,154.32 176,149.31 180,144.43 184,139.84 188,135.70 192,132.13 196,129.25 200,127.17 204,125.94 208,125.60 212,126.18 216,127.64 220,129.94 224,133.01 228,136.74 232,141.02 236,145.70 240,150.63 244,155.65 248,160.59 252,165.29 256,169.61" fill="none" stroke="#00ff87" stroke-width="2" opacity="0.80"/></svg>
