<svg xmlns="http://www.w3.org/2000/svg" viewBox="0 0 256 256" width="256" height="256"><rect width="256" height="256" fill="#000000"/><rect x="40.00" y="86.81" width="9.12" height="82.39" fill="#00ff87" opacity="0.41"/><rect x="51.12" y="116.53" width="9.12" height="22.94" fill="#00ff87" opacity="0.56"/><rect x="62.25" y="79.66" width="9.12" height="96.67" fill="#00ff87" opacity="0.50"/><rect x="73.38" y="93.20" width="9.12" height="69.59" fill="#00ff87" opacity="0.47"/><rect x="84.50" y="49.88" width="9.12" height="156.24" fill="#00ff87" opacity="0.95"/><rect x="95.62" y="57.28" width="9.12" height="141.45" fill="#00ff87" opacity="0.55"/><rect x="106.75" y="57.25" width="9.12" height="141.50" fill="#00ff87" opacity="0.76"/><rect x="117.88" y="75.79" width="9.12" height="104.43" fill="#00ff87" opacity="0.56"/><rect x="129.00" y="60.66" width="9.12" height="134.69" fill="#00ff87" opacity="0.56"/><rect x="140.12" y="65.66" width="9.12" height="124.68" fill="#00ff87" opacity="0.56"/><rect x="151.25" y="72.82" width="9.12" height="110.36" fill="#00ff87" opacity="0.51"/><rect x="162.38" y="107.06" width="9.12" height="41.88" fill="#00ff87" opacity="0.46"/><rect x="173.50" y="61.39" width="9.12" height="133.21" fill="#00ff87" opacity="0.55"/><rect x="184.62" y="78.23" width="9.12" height="99.53" fill="#00ff87" opacity="0.96"/><rect x="195.75" y="50.15" width="9.12" height="155.71" fill="#00ff87" opacity="0.95"/><rect x="206.88" y="80.08" width="9.12" height="95.84" fill="#00ff87" opacity="0.51"/></svg>
